<?xml version="1.0" encoding="UTF-8"?>
<svg version="1.1" xmlns="http://www.w3.org/2000/svg" viewBox="100 100 677 689" width="100%" height="100%">
<path d="M0 0 C0.33 0.66 0.66 1.32 1 2 C0.0218596 4.01078128 -0.98192066 6.00914228 -2 8 C-6.28151507 21.44360493 -6.894829 37.39074284 -3 51 C-2.77828125 51.92941406 -2.5565625 52.85882813 -2.328125 53.81640625 C2.29311383 71.23324504 12.18453687 85.68300362 24 99 C24.48114258 99.55268555 24.96228516 100.10537109 25.45800781 100.67480469 C37.37727886 114.34813804 51.25262423 125.99367735 65.375 137.3125 C95.4545442 161.8395702 95.4545442 161.8395702 105 177 C103.57573924 181.27278228 100.45432438 182.2864505 96.6875 184.3125 C95.95837402 184.7142041 95.22924805 185.1159082 94.47802734 185.52978516 C90.40980327 187.75458124 86.3017634 189.86004944 82.125 191.875 C69.90421755 197.87731628 58.43032577 205.42198091 47.50390625 213.515625 C46.67761719 214.00546875 45.85132813 214.4953125 45 215 C41.23637591 213.74545864 40.26260282 212.15439966 37.8125 209.0625 C37.01457031 208.06347656 36.21664063 207.06445312 35.39453125 206.03515625 C34.60433594 205.03355469 33.81414062 204.03195312 33 203 C31.66759538 201.33259079 30.33431139 199.66588375 29 198 C28.34773438 197.18273437 27.69546875 196.36546875 27.0234375 195.5234375 C22.62009863 190.03201489 18.17700503 184.57151995 13.62890625 179.19921875 C3.33923763 167.03271458 -6.1427936 154.24442078 -15 141 C-15.69996094 139.989375 -16.39992188 138.97875 -17.12109375 137.9375 C-22.90943332 129.18386738 -26.15680087 120.05389316 -29 110 C-29.27263672 109.07151245 -29.27263672 109.07151245 -29.55078125 108.12426758 C-30.11670628 105.44811883 -30.21877714 102.87424 -30.31640625 100.140625 C-30.37924805 98.46806641 -30.37924805 98.46806641 -30.44335938 96.76171875 C-30.48267578 95.60285156 -30.52199219 94.44398438 -30.5625 93.25 C-30.60568359 92.07566406 -30.64886719 90.90132813 -30.69335938 89.69140625 C-30.79934794 86.79438549 -30.90141638 83.89728065 -31 81 C-33.37959509 87.77864981 -34.46895229 93.76304508 -34.3125 100.9375 C-34.29832031 101.81792969 -34.28414062 102.69835937 -34.26953125 103.60546875 C-33.71520706 127.0256657 -22.43472043 148.95791219 -8 167 C-7.50161621 167.62841797 -7.00323242 168.25683594 -6.48974609 168.90429688 C-0.33611342 176.64928932 5.96168677 184.17200645 12.67578125 191.4375 C15.0063812 194.00703541 17.23600159 196.63173733 19.4375 199.3125 C20.54544922 200.64667969 20.54544922 200.64667969 21.67578125 202.0078125 C23.41384047 204.24538117 24.95329534 206.43197717 26.48046875 208.8046875 C31.09989482 216.02152219 31.09989482 216.02152219 38.3671875 219.921875 C41.6008642 219.93578329 44.66348957 219.69487667 47.86230469 219.23779297 C50.17326853 218.98072595 52.40218556 218.97045859 54.7265625 219.00390625 C65.18405038 219.07297402 71.6496657 217.47494808 80.28320312 211.18554688 C83.48032098 208.97775332 86.90458575 207.1707495 90.3125 205.3125 C91.06112305 204.8985498 91.80974609 204.48459961 92.58105469 204.05810547 C96.95192258 201.64624861 101.34441388 199.27747824 105.75 196.9296875 C137.63026184 179.91393752 166.29168019 163.00835748 183.25 129.9375 C183.74439575 128.98278809 183.74439575 128.98278809 184.2487793 128.00878906 C189.00652503 118.4421783 190.45331737 109.91145482 190.25 99.25 C190.24484375 98.15300781 190.2396875 97.05601562 190.234375 95.92578125 C190.18490017 90.8236889 189.92694311 86.02852704 189 81 C193.22786534 84.95734379 196.51345487 89.25156798 199.8125 94 C200.34020996 94.75547119 200.86791992 95.51094238 201.41162109 96.28930664 C207.9226085 105.68225536 213.72749071 115.40929336 219.3125 125.375 C219.73354004 126.12450928 220.15458008 126.87401855 220.58837891 127.64624023 C223.00330934 132.00780106 225.09942349 136.38358627 227 141 C227.64371737 142.48529384 228.28969856 143.96960785 228.9375 145.453125 C235.49605175 160.64217749 235.49605175 160.64217749 237.359375 168.41796875 C238.09803336 171.39512226 239.04609479 174.27239415 240 177.1875 C244.10619928 190.38712143 246.19112858 204.15671602 246.09765625 217.97265625 C246.0962413 218.78117538 246.09482635 219.58969452 246.09336853 220.42271423 C246.08783414 222.96934942 246.0752946 225.51589203 246.0625 228.0625 C246.0574765 229.80403518 246.05291509 231.54557175 246.04882812 233.28710938 C246.03788634 237.52477448 246.02066826 241.76237163 246 246 C246.7427417 246.13140381 247.4854834 246.26280762 248.25073242 246.39819336 C250.7002304 246.93438131 252.71039779 247.61034048 254.98828125 248.62890625 C255.69404297 248.94150391 256.39980469 249.25410156 257.12695312 249.57617188 C257.84818359 249.90166016 258.56941406 250.22714844 259.3125 250.5625 C260.05306641 250.89185547 260.79363281 251.22121094 261.55664062 251.56054688 C263.37311562 252.36917123 265.18683931 253.18397116 267 254 C267.33 252.68 267.66 251.36 268 250 C268 251.98 268 253.96 268 256 C268.67329346 256.09893555 269.34658691 256.19787109 270.0402832 256.29980469 C273.69655867 257.16478844 276.96115037 258.63398852 280.35546875 260.203125 C281.05714676 260.52279236 281.75882477 260.84245972 282.48176575 261.17181396 C283.96464196 261.84856118 285.44636677 262.52783632 286.92700195 263.20947266 C289.16046861 264.23755721 291.39722971 265.25815071 293.63476562 266.27734375 C317.11893252 277.00221575 339.01981919 289.25830583 358 307 C358.70511719 307.65597168 359.41023437 308.31194336 360.13671875 308.98779297 C381.30184661 328.88246673 394.79231578 350.11992979 403 378 C403.42539063 379.37671875 403.42539063 379.37671875 403.859375 380.78125 C409.64684398 401.33267046 410.40917412 422.2293548 406 443 C405.7831958 444.03592285 405.7831958 444.03592285 405.56201172 445.09277344 C401.65737345 463.29712241 393.54995172 481.63164467 382.37109375 496.62109375 C379.83007649 500.07237099 378.22918579 503.66885277 376.625 507.625 C368.48082012 526.79310641 357.07305773 543.06578979 343.26757812 558.55615234 C342.17535407 559.80026118 341.12264569 561.07886048 340.078125 562.36328125 C336.24678023 567.06123971 331.97548727 570.41466123 327.00390625 573.87109375 C324.39396298 575.72079347 321.8966167 577.66053769 319.4050293 579.66503906 C312.35607686 585.29728498 304.88534425 589.66610104 296.95361328 593.93408203 C293.93270072 595.582333 290.97217075 597.3278884 288 599.0625 C271.98116763 608.18761063 255.95345269 614.90051364 238.16796875 619.8125 C232.53741673 621.38979749 226.9605881 623.14670221 221.375 624.875 C213.19572516 627.40292552 205.01304718 629.91685454 196.8125 632.375 C196.01827637 632.61331543 195.22405273 632.85163086 194.40576172 633.09716797 C192.93878519 633.5358988 191.47120719 633.97262536 190.00292969 634.40698242 C188.14720789 634.95641541 186.29418114 635.51492885 184.44140625 636.07421875 C180.69710966 637.08148128 176.945021 637.79985964 173.125 638.4375 C171.60279038 638.6961783 170.08065681 638.95530445 168.55859375 639.21484375 C167.79272949 639.34487793 167.02686523 639.47491211 166.23779297 639.60888672 C164.1868861 639.96733673 162.14185285 640.35898138 160.09765625 640.75390625 C149.62985838 642.75125829 139.13431503 643.93426303 128.53198242 644.99804688 C127.37158447 645.11470703 126.21118652 645.23136719 125.015625 645.3515625 C123.97696289 645.45291504 122.93830078 645.55426758 121.86816406 645.65869141 C119.06389413 645.94388829 119.06389413 645.94388829 116.60498047 646.53222656 C113.16813196 647.14937762 109.78367892 647.14284359 106.3046875 647.1328125 C105.55776642 647.13376923 104.81084534 647.13472595 104.04129028 647.13571167 C102.45607418 647.13639104 100.87085526 647.13455371 99.28564453 647.13037109 C96.93124609 647.12512532 94.57704793 647.13026836 92.22265625 647.13671875 C84.43767809 647.14009051 76.69354534 646.97803257 68.921875 646.515625 C61.47546417 646.07284442 54.04476591 645.879175 46.5859375 645.7890625 C45.50943939 645.77477203 44.43294128 645.76048157 43.32382202 645.74575806 C38.89202806 645.68837407 34.46035494 645.63355109 30.02832031 645.59863281 C16.65578446 645.4850074 4.09084127 644.70826499 -9 642 C-12.61776729 641.44126926 -16.24515326 640.97280419 -19.875 640.5 C-26.13269973 639.64836706 -32.0702248 638.5920626 -38.1171875 636.734375 C-41.19097869 635.9513496 -44.21382796 635.50714354 -47.35302734 635.08007812 C-68.17304818 632.21303105 -87.24277438 624.56127896 -106.51220703 616.45703125 C-111.22530996 614.48812475 -115.96034616 612.57527892 -120.69628906 610.66210938 C-126.13881662 608.46074019 -131.57068811 606.23373259 -137 604 C-138.26384521 603.48179687 -138.26384521 603.48179687 -139.55322266 602.953125 C-147.20350748 599.79663462 -154.40450947 596.44343534 -161.30078125 591.8046875 C-164.26620979 589.82201313 -167.30958594 588.01136643 -170.375 586.1875 C-179.37568869 580.65850552 -187.93605544 574.4635672 -195.20703125 566.76171875 C-197.44001651 564.56765262 -199.85392729 562.68736901 -202.3125 560.75 C-218.21870069 547.87666885 -228.28234053 530.62039619 -235.4375 511.6875 C-237.64073255 506.19420543 -240.85067207 502.33086863 -244.67578125 497.8671875 C-263.60239211 474.51906587 -274.65884385 434.1038253 -272.25878906 404.23144531 C-267.91933629 366.81389969 -251.09948696 333.36969763 -221.81689453 309.49511719 C-220.0699264 308.05754223 -218.35695299 306.58898215 -216.65234375 305.1015625 C-209.66405564 299.01965209 -202.38648309 293.539176 -194.78369141 288.25146484 C-192.96117204 286.97275772 -191.15651256 285.67203654 -189.35546875 284.36328125 C-166.68433228 267.8988079 -141.34141688 257.19299302 -115.08496094 247.76123047 C-112.07786305 246.66332283 -109.10279578 245.48719402 -106.125 244.3125 C-94.77388879 239.95550782 -84.0583934 237.26754896 -72 236 C-72.63615234 234.70255859 -72.63615234 234.70255859 -73.28515625 233.37890625 C-79.10087596 221.05834503 -82.71289172 208.19495417 -86 195 C-86.20826416 194.23002686 -86.41652832 193.46005371 -86.63110352 192.66674805 C-88.69535911 184.11666937 -88.35382776 175.30247774 -88.3125 166.5625 C-88.30968018 165.70974487 -88.30686035 164.85698975 -88.30395508 163.97839355 C-88.24314302 151.77524883 -88.13866294 139.86550004 -85 128 C-84.74186523 127.02240723 -84.48373047 126.04481445 -84.21777344 125.03759766 C-74.53060137 89.48041955 -57.03056059 59.05398106 -32.49560547 31.68432617 C-30.40322632 29.32792334 -28.36026608 26.93055707 -26.3190918 24.52978516 C-24.63345867 22.57491246 -22.92648257 20.72007373 -21 19 C-20.34 19 -19.68 19 -19 19 C-18.67 18.01 -18.34 17.02 -18 16 C-16.50390625 14.4921875 -16.50390625 14.4921875 -14.5625 12.875 C-11.15794209 9.98946726 -7.81204967 7.05418071 -4.5 4.0625 C-3.6440625 3.29035156 -2.788125 2.51820312 -1.90625 1.72265625 C-1.2771875 1.15417969 -0.648125 0.58570312 0 0 Z " fill="#FEFEFD" transform="translate(380,82)"/>
<path d="M0 0 C0.33 0.66 0.66 1.32 1 2 C0.0218596 4.01078128 -0.98192066 6.00914228 -2 8 C-6.28151507 21.44360493 -6.894829 37.39074284 -3 51 C-2.77828125 51.92941406 -2.5565625 52.85882813 -2.328125 53.81640625 C2.29311383 71.23324504 12.18453687 85.68300362 24 99 C24.48114258 99.55268555 24.96228516 100.10537109 25.45800781 100.67480469 C37.37727886 114.34813804 51.25262423 125.99367735 65.375 137.3125 C95.4545442 161.8395702 95.4545442 161.8395702 105 177 C103.57573924 181.27278228 100.45432438 182.2864505 96.6875 184.3125 C95.95837402 184.7142041 95.22924805 185.1159082 94.47802734 185.52978516 C90.40980327 187.75458124 86.3017634 189.86004944 82.125 191.875 C69.90421755 197.87731628 58.43032577 205.42198091 47.50390625 213.515625 C46.67761719 214.00546875 45.85132813 214.4953125 45 215 C41.23637591 213.74545864 40.26260282 212.15439966 37.8125 209.0625 C37.01457031 208.06347656 36.21664063 207.06445312 35.39453125 206.03515625 C34.60433594 205.03355469 33.81414062 204.03195312 33 203 C31.66759538 201.33259079 30.33431139 199.66588375 29 198 C28.34773438 197.18273437 27.69546875 196.36546875 27.0234375 195.5234375 C22.62009863 190.03201489 18.17700503 184.57151995 13.62890625 179.19921875 C3.33923763 167.03271458 -6.1427936 154.24442078 -15 141 C-15.69996094 139.989375 -16.39992188 138.97875 -17.12109375 137.9375 C-22.90943332 129.18386738 -26.15680087 120.05389316 -29 110 C-29.27263672 109.07151245 -29.27263672 109.07151245 -29.55078125 108.12426758 C-30.11670628 105.44811883 -30.21877714 102.87424 -30.31640625 100.140625 C-30.37924805 98.46806641 -30.37924805 98.46806641 -30.44335938 96.76171875 C-30.48267578 95.60285156 -30.52199219 94.44398438 -30.5625 93.25 C-30.60568359 92.07566406 -30.64886719 90.90132813 -30.69335938 89.69140625 C-30.79934794 86.79438549 -30.90141638 83.89728065 -31 81 C-33.37959509 87.77864981 -34.46895229 93.76304508 -34.3125 100.9375 C-34.29832031 101.81792969 -34.28414062 102.69835937 -34.26953125 103.60546875 C-33.71520706 127.0256657 -22.43472043 148.95791219 -8 167 C-7.50161621 167.62841797 -7.00323242 168.25683594 -6.48974609 168.90429688 C-0.33611342 176.64928932 5.96168677 184.17200645 12.67578125 191.4375 C15.0063812 194.00703541 17.23600159 196.63173733 19.4375 199.3125 C20.54544922 200.64667969 20.54544922 200.64667969 21.67578125 202.0078125 C23.41384047 204.24538117 24.95329534 206.43197717 26.48046875 208.8046875 C31.09989482 216.02152219 31.09989482 216.02152219 38.3671875 219.921875 C41.6008642 219.93578329 44.66348957 219.69487667 47.86230469 219.23779297 C50.17326853 218.98072595 52.40218556 218.97045859 54.7265625 219.00390625 C65.18405038 219.07297402 71.6496657 217.47494808 80.28320312 211.18554688 C83.48032098 208.97775332 86.90458575 207.1707495 90.3125 205.3125 C91.06112305 204.8985498 91.80974609 204.48459961 92.58105469 204.05810547 C96.95192258 201.64624861 101.34441388 199.27747824 105.75 196.9296875 C137.63026184 179.91393752 166.29168019 163.00835748 183.25 129.9375 C183.74439575 128.98278809 183.74439575 128.98278809 184.2487793 128.00878906 C189.00652503 118.4421783 190.45331737 109.91145482 190.25 99.25 C190.24484375 98.15300781 190.2396875 97.05601562 190.234375 95.92578125 C190.18490017 90.8236889 189.92694311 86.02852704 189 81 C193.22786534 84.95734379 196.51345487 89.25156798 199.8125 94 C200.34020996 94.75547119 200.86791992 95.51094238 201.41162109 96.28930664 C207.9226085 105.68225536 213.72749071 115.40929336 219.3125 125.375 C219.73354004 126.12450928 220.15458008 126.87401855 220.58837891 127.64624023 C223.00330934 132.00780106 225.09942349 136.38358627 227 141 C227.64371737 142.48529384 228.28969856 143.96960785 228.9375 145.453125 C235.49605175 160.64217749 235.49605175 160.64217749 237.359375 168.41796875 C238.09803336 171.39512226 239.04609479 174.27239415 240 177.1875 C244.10619928 190.38712143 246.19112858 204.15671602 246.09765625 217.97265625 C246.0962413 218.78117538 246.09482635 219.58969452 246.09336853 220.42271423 C246.08783414 222.96934942 246.0752946 225.51589203 246.0625 228.0625 C246.0574765 229.80403518 246.05291509 231.54557175 246.04882812 233.28710938 C246.03788634 237.52477448 246.02066826 241.76237163 246 246 C246.7427417 246.13140381 247.4854834 246.26280762 248.25073242 246.39819336 C250.7002304 246.93438131 252.71039779 247.61034048 254.98828125 248.62890625 C255.69404297 248.94150391 256.39980469 249.25410156 257.12695312 249.57617188 C257.84818359 249.90166016 258.56941406 250.22714844 259.3125 250.5625 C260.05306641 250.89185547 260.79363281 251.22121094 261.55664062 251.56054688 C263.37311562 252.36917123 265.18683931 253.18397116 267 254 C267.33 252.68 267.66 251.36 268 250 C268 251.98 268 253.96 268 256 C268.67329346 256.09893555 269.34658691 256.19787109 270.0402832 256.29980469 C273.69655867 257.16478844 276.96115037 258.63398852 280.35546875 260.203125 C281.05714676 260.52279236 281.75882477 260.84245972 282.48176575 261.17181396 C283.96464196 261.84856118 285.44636677 262.52783632 286.92700195 263.20947266 C289.16046861 264.23755721 291.39722971 265.25815071 293.63476562 266.27734375 C317.11893252 277.00221575 339.01981919 289.25830583 358 307 C358.70511719 307.65597168 359.41023437 308.31194336 360.13671875 308.98779297 C381.30184661 328.88246673 394.79231578 350.11992979 403 378 C403.42539063 379.37671875 403.42539063 379.37671875 403.859375 380.78125 C409.64684398 401.33267046 410.40917412 422.2293548 406 443 C405.7831958 444.03592285 405.7831958 444.03592285 405.56201172 445.09277344 C401.65737345 463.29712241 393.54995172 481.63164467 382.37109375 496.62109375 C379.83007649 500.07237099 378.22918579 503.66885277 376.625 507.625 C368.48082012 526.79310641 357.07305773 543.06578979 343.26757812 558.55615234 C342.17535407 559.80026118 341.12264569 561.07886048 340.078125 562.36328125 C336.24678023 567.06123971 331.97548727 570.41466123 327.00390625 573.87109375 C324.39396298 575.72079347 321.8966167 577.66053769 319.4050293 579.66503906 C312.35607686 585.29728498 304.88534425 589.66610104 296.95361328 593.93408203 C293.93270072 595.582333 290.97217075 597.3278884 288 599.0625 C271.98116763 608.18761063 255.95345269 614.90051364 238.16796875 619.8125 C232.53741673 621.38979749 226.9605881 623.14670221 221.375 624.875 C213.19572516 627.40292552 205.01304718 629.91685454 196.8125 632.375 C196.01827637 632.61331543 195.22405273 632.85163086 194.40576172 633.09716797 C192.93878519 633.5358988 191.47120719 633.97262536 190.00292969 634.40698242 C188.14720789 634.95641541 186.29418114 635.51492885 184.44140625 636.07421875 C180.69710966 637.08148128 176.945021 637.79985964 173.125 638.4375 C171.60279038 638.6961783 170.08065681 638.95530445 168.55859375 639.21484375 C167.79272949 639.34487793 167.02686523 639.47491211 166.23779297 639.60888672 C164.1868861 639.96733673 162.14185285 640.35898138 160.09765625 640.75390625 C149.62985838 642.75125829 139.13431503 643.93426303 128.53198242 644.99804688 C127.37158447 645.11470703 126.21118652 645.23136719 125.015625 645.3515625 C123.97696289 645.45291504 122.93830078 645.55426758 121.86816406 645.65869141 C119.06389413 645.94388829 119.06389413 645.94388829 116.60498047 646.53222656 C113.16813196 647.14937762 109.78367892 647.14284359 106.3046875 647.1328125 C105.55776642 647.13376923 104.81084534 647.13472595 104.04129028 647.13571167 C102.45607418 647.13639104 100.87085526 647.13455371 99.28564453 647.13037109 C96.93124609 647.12512532 94.57704793 647.13026836 92.22265625 647.13671875 C84.43767809 647.14009051 76.69354534 646.97803257 68.921875 646.515625 C61.47546417 646.07284442 54.04476591 645.879175 46.5859375 645.7890625 C45.50943939 645.77477203 44.43294128 645.76048157 43.32382202 645.74575806 C38.89202806 645.68837407 34.46035494 645.63355109 30.02832031 645.59863281 C16.65578446 645.4850074 4.09084127 644.70826499 -9 642 C-12.61776729 641.44126926 -16.24515326 640.97280419 -19.875 640.5 C-26.13269973 639.64836706 -32.0702248 638.5920626 -38.1171875 636.734375 C-41.19097869 635.9513496 -44.21382796 635.50714354 -47.35302734 635.08007812 C-68.17304818 632.21303105 -87.24277438 624.56127896 -106.51220703 616.45703125 C-111.22530996 614.48812475 -115.96034616 612.57527892 -120.69628906 610.66210938 C-126.13881662 608.46074019 -131.57068811 606.23373259 -137 604 C-138.26384521 603.48179687 -138.26384521 603.48179687 -139.55322266 602.953125 C-147.20350748 599.79663462 -154.40450947 596.44343534 -161.30078125 591.8046875 C-164.26620979 589.82201313 -167.30958594 588.01136643 -170.375 586.1875 C-179.37568869 580.65850552 -187.93605544 574.4635672 -195.20703125 566.76171875 C-197.44001651 564.56765262 -199.85392729 562.68736901 -202.3125 560.75 C-218.21870069 547.87666885 -228.28234053 530.62039619 -235.4375 511.6875 C-237.64073255 506.19420543 -240.85067207 502.33086863 -244.67578125 497.8671875 C-263.60239211 474.51906587 -274.65884385 434.1038253 -272.25878906 404.23144531 C-267.91933629 366.81389969 -251.09948696 333.36969763 -221.81689453 309.49511719 C-220.0699264 308.05754223 -218.35695299 306.58898215 -216.65234375 305.1015625 C-209.66405564 299.01965209 -202.38648309 293.539176 -194.78369141 288.25146484 C-192.96117204 286.97275772 -191.15651256 285.67203654 -189.35546875 284.36328125 C-166.68433228 267.8988079 -141.34141688 257.19299302 -115.08496094 247.76123047 C-112.07786305 246.66332283 -109.10279578 245.48719402 -106.125 244.3125 C-94.77388879 239.95550782 -84.0583934 237.26754896 -72 236 C-72.63615234 234.70255859 -72.63615234 234.70255859 -73.28515625 233.37890625 C-79.10087596 221.05834503 -82.71289172 208.19495417 -86 195 C-86.20826416 194.23002686 -86.41652832 193.46005371 -86.63110352 192.66674805 C-88.69535911 184.11666937 -88.35382776 175.30247774 -88.3125 166.5625 C-88.30968018 165.70974487 -88.30686035 164.85698975 -88.30395508 163.97839355 C-88.24314302 151.77524883 -88.13866294 139.86550004 -85 128 C-84.74186523 127.02240723 -84.48373047 126.04481445 -84.21777344 125.03759766 C-74.53060137 89.48041955 -57.03056059 59.05398106 -32.49560547 31.68432617 C-30.40322632 29.32792334 -28.36026608 26.93055707 -26.3190918 24.52978516 C-24.63345867 22.57491246 -22.92648257 20.72007373 -21 19 C-20.34 19 -19.68 19 -19 19 C-18.67 18.01 -18.34 17.02 -18 16 C-16.50390625 14.4921875 -16.50390625 14.4921875 -14.5625 12.875 C-11.15794209 9.98946726 -7.81204967 7.05418071 -4.5 4.0625 C-3.6440625 3.29035156 -2.788125 2.51820312 -1.90625 1.72265625 C-1.2771875 1.15417969 -0.648125 0.58570312 0 0 Z M-71.640625 249.13671875 C-72.53740967 249.38131836 -73.43419434 249.62591797 -74.3581543 249.87792969 C-75.31246338 250.14508789 -76.26677246 250.41224609 -77.25 250.6875 C-78.74043823 251.10177246 -78.74043823 251.10177246 -80.26098633 251.52441406 C-83.17660384 252.34070223 -86.08894526 253.1676016 -89 254 C-89.71269043 254.20254395 -90.42538086 254.40508789 -91.15966797 254.61376953 C-118.22906004 262.40257121 -144.27128366 273.40217828 -168.96386719 286.89355469 C-170.7181337 287.84683236 -172.48672305 288.77366643 -174.2578125 289.6953125 C-183.09970733 294.48969144 -190.50113687 300.97830093 -198.14257812 307.44677734 C-200.35967772 309.30077151 -202.63343577 311.06811095 -204.9375 312.8125 C-213.80479906 319.66372721 -221.14902246 327.13972516 -228 336 C-228.72960937 336.90234375 -229.45921875 337.8046875 -230.2109375 338.734375 C-249.37380947 363.07458431 -259.60164785 393.49212757 -257.41699219 424.55664062 C-254.79850249 446.17911056 -246.55768416 467.30982869 -234 485 C-233.40324463 485.84232178 -233.40324463 485.84232178 -232.79443359 486.70166016 C-220.74655921 503.41633822 -205.67088152 517.03619091 -189 529 C-188.13503906 529.63808594 -187.27007812 530.27617188 -186.37890625 530.93359375 C-183.95639453 532.68435179 -181.48917071 534.34518818 -179 536 C-178.38060547 536.42603516 -177.76121094 536.85207031 -177.12304688 537.29101562 C-164.96589912 545.61736612 -152.52796906 551.51709037 -138.82617188 556.87255859 C-136.26951753 557.89248169 -133.74973084 558.96486705 -131.234375 560.08203125 C-111.96520809 568.63010172 -91.69814024 574.70169967 -71.19042969 579.48242188 C-68.40099424 580.14153948 -65.62513658 580.84897957 -62.84838867 581.55932617 C-46.79546183 585.65249483 -30.66399478 588.90661572 -14.31860352 591.60864258 C-12.5449841 591.90801206 -10.77681495 592.23984021 -9.01171875 592.5859375 C-3.46289677 593.34881056 2.14654455 593.35775842 7.74023438 593.51757812 C12.83128651 593.6947454 17.89156453 593.97174822 22.96142578 594.4699707 C38.33181711 595.97932772 53.559954 596.35776903 69 596.3125 C70.26358337 596.31100952 71.52716675 596.30951904 72.82904053 596.3079834 C94.68100392 596.26189164 116.2771586 595.33930792 138 593 C138.73607483 592.92267639 139.47214966 592.84535278 140.23052979 592.76568604 C154.99801247 591.21364469 169.62404854 589.60664521 183.94824219 585.53857422 C187.3422702 584.64766206 190.77780982 583.96063566 194.21240234 583.24536133 C243.57253901 572.95288576 296.09491243 554.94634985 335.17285156 522.50683594 C337.56718632 520.5322456 340.00010803 518.60855971 342.4375 516.6875 C351.03235229 509.78862191 358.22771769 502.72741077 365 494 C365.73089844 493.09636719 366.46179688 492.19273437 367.21484375 491.26171875 C386.0200095 467.36692993 397.99809745 435.74133085 395.41699219 405.01855469 C393.90620827 394.08217747 390.42486055 383.46208612 387 373 C386.75507812 372.2354248 386.51015625 371.47084961 386.2578125 370.68310547 C380.6898414 353.91474807 368.36402578 338.34682964 356 326 C354.96735833 324.90096231 353.93753281 323.79927358 352.91015625 322.6953125 C330.5230313 299.00811836 302.00535326 282.89922905 272 271 C270.33333333 270.33333333 268.66666667 269.66666667 267 269 C267 271.31 267 273.62 267 276 C267.62753174 276.27561768 268.25506348 276.55123535 268.90161133 276.83520508 C303.37729523 292.06806259 332.96610734 309.97456237 354 342 C354.47518066 342.7204248 354.95036133 343.44084961 355.43994141 344.18310547 C370.77582106 367.56452225 383.65460287 391.15712752 378.3359375 420.1015625 C375.14690351 433.27365943 368.69465822 453.12712551 357 461 C358.5805137 450.33153252 360.47460088 440.21937558 364 430 C364.50466797 428.48599609 364.50466797 428.48599609 365.01953125 426.94140625 C365.61421667 425.15734999 366.22144253 423.37731985 366.8515625 421.60546875 C370.64115483 409.75820789 370.36234149 396.63872709 366 385 C365.45472656 383.54013672 365.45472656 383.54013672 364.8984375 382.05078125 C358.14695415 365.041399 347.86316127 350.74777719 336 337 C335.09121094 335.92298828 335.09121094 335.92298828 334.1640625 334.82421875 C332.47729394 332.84840299 330.75165554 330.91847988 329 329 C328.32195313 328.24460937 327.64390625 327.48921875 326.9453125 326.7109375 C314.04347672 313.02717228 297.67426826 304.12496499 280.89526367 296.06860352 C279.03911101 295.17625571 277.18650822 294.27680605 275.33398438 293.37695312 C273.57731445 292.53100586 273.57731445 292.53100586 271.78515625 291.66796875 C270.72176025 291.15516357 269.65836426 290.6423584 268.56274414 290.11401367 C266.16003397 288.86711366 266.16003397 288.86711366 264 289 C263.69707031 289.99257813 263.39414062 290.98515625 263.08203125 292.0078125 C259.09795463 304.97776655 255.1753088 317.56252572 248.35546875 329.35546875 C246.77193508 331.94967777 246.77193508 331.94967777 247 335 C248.78664063 335.60521484 248.78664063 335.60521484 250.609375 336.22265625 C261.69400607 340.13272208 272.1534824 344.89207813 282.5 350.4375 C283.64307617 351.04537354 284.78615234 351.65324707 285.96386719 352.27954102 C296.43682416 357.9858047 306.62463785 364.32726164 315.3125 372.5625 C315.80121582 373.02446777 316.28993164 373.48643555 316.79345703 373.96240234 C318.20301929 375.30053565 319.60182707 376.64997076 321 378 C321.76441406 378.71285156 322.52882813 379.42570313 323.31640625 380.16015625 C334.49751654 390.83206987 340.92722874 404.36364396 341.3125 419.875 C341.23958649 426.02624922 340.21550435 431.27661375 338 437 C337.01 436.67 336.02 436.34 335 436 C334.02900224 433.60751022 333.26513786 431.34710659 332.5625 428.875 C332.34787109 428.16013428 332.13324219 427.44526855 331.91210938 426.70874023 C330.85138837 423.1303806 329.86857415 419.53907423 328.96484375 415.91796875 C325.75464964 403.09018905 321.11836896 395.52156214 312 386 C311.40703125 385.33226562 310.8140625 384.66453125 310.203125 383.9765625 C295.27652666 367.79507315 272.78338484 358.19414965 253.375 348.6875 C251.90824829 347.95756836 251.90824829 347.95756836 250.41186523 347.21289062 C249.49993408 346.77525391 248.58800293 346.33761719 247.6484375 345.88671875 C246.84583496 345.49701904 246.04323242 345.10731934 245.21630859 344.70581055 C242.64852162 343.88806742 241.47230283 343.97646464 239 345 C237.05722965 347.25301552 237.05722965 347.25301552 235.1875 350.125 C213.40347181 380.59295084 178.21514007 396.57881218 144 409 C144 409.66 144 410.32 144 411 C142.98292969 411.10828125 141.96585938 411.2165625 140.91796875 411.328125 C136.97856141 412.00367641 133.94585574 413.11266896 130.3125 414.75 C125.88243715 416.72501802 121.44280855 418.63896171 116.9375 420.4375 C111.44402229 422.70686445 106.28799349 425.44829769 101.10546875 428.3515625 C98 430 98 430 94.6796875 431.37109375 C80.96992831 437.11663837 68.79275445 446.95719525 58 457 C56.74123047 458.13695312 56.74123047 458.13695312 55.45703125 459.296875 C44.56597914 469.56933035 36.72375201 482.82874398 32 497 C32.222304 487.46113742 34.85660684 478.90589737 38 470 C38.35964844 468.96746094 38.71929687 467.93492187 39.08984375 466.87109375 C50.67906064 436.55766168 75.83272089 418.41475508 104.13671875 404.90332031 C106.05539386 403.97314501 107.94779144 402.99896327 109.84375 402.0234375 C113.5944562 400.14151058 117.42956827 398.57841773 121.33544922 397.04931641 C126.10829393 395.16974095 130.83060394 393.16740172 135.5625 391.1875 C143.4915068 387.87503498 151.42443105 384.57353918 159.38305664 381.33276367 C184.07498349 371.22754973 206.84523874 358.74878366 226 340 C225.13127193 337.68832584 225.13127193 337.68832584 222.234375 337 C221.08453125 336.67 219.9346875 336.34 218.75 336 C212.29220779 334.12987013 212.29220779 334.12987013 209.328125 332.8125 C206.63230262 331.87167608 205.59328306 331.84979643 203 333 C201.24361411 334.54371889 201.24361411 334.54371889 199.5625 336.5 C186.58156015 349.83561034 167.95141971 358.80303493 151 366 C149.90703613 366.46780884 149.90703613 366.46780884 148.79199219 366.94506836 C146.53092063 367.9079798 144.26617025 368.86165433 142 369.8125 C141.18402344 370.15579346 140.36804688 370.49908691 139.52734375 370.8527832 C134.03034071 373.16107843 128.51846509 375.43110805 123 377.6875 C117.4679244 379.95105306 112.00350157 382.31621366 106.58203125 384.8359375 C103.87478466 386.05645109 101.13414793 387.15231463 98.375 388.25 C69.99965698 400.0761107 42.37790488 419.43444713 29 448 C27.90599189 451.30823558 26.92890192 454.6419803 26 458 C26.27891912 454.43638218 26.57537734 450.87443209 26.875 447.3125 C26.95363281 446.30509766 27.03226562 445.29769531 27.11328125 444.25976562 C27.19707031 443.28330078 27.28085937 442.30683594 27.3671875 441.30078125 C27.44050293 440.40528564 27.51381836 439.50979004 27.58935547 438.5871582 C28.02893009 435.81773354 28.95156429 433.59299492 30 431 C30.34271122 429.17489083 30.63571392 427.33996495 30.88671875 425.5 C31.94075156 418.79195864 33.7732428 412.46724881 35.8125 406 C36.14314453 404.91460937 36.47378906 403.82921875 36.81445312 402.7109375 C46.53195433 371.45079927 63.09593772 343.39279425 82.8918457 317.56420898 C84.09634624 316.18349722 84.09634624 316.18349722 84 315 C73.68880223 313.67928749 73.68880223 313.67928749 64.18359375 316.8046875 C61.8570171 319.41012038 59.92920032 322.08894027 58 325 C56.52408185 326.89836342 55.04482334 328.7941338 53.5625 330.6875 C52.02833616 332.78196716 50.50807023 334.88666719 49 337 C48.39454346 337.84473877 48.39454346 337.84473877 47.77685547 338.70654297 C42.5430976 346.07143633 37.95579031 353.62207218 33.875 361.6875 C33.48441406 362.45400879 33.09382813 363.22051758 32.69140625 364.01025391 C32.33691406 364.7326123 31.98242188 365.4549707 31.6171875 366.19921875 C31.30378418 366.83690186 30.99038086 367.47458496 30.66748047 368.1315918 C29.77571857 370.29713147 29.77571857 370.29713147 30 374 C29.34 374 28.68 374 28 374 C27.84144531 373.319375 27.68289063 372.63875 27.51953125 371.9375 C26.13048557 366.16643729 24.51924893 360.60451546 22.5625 355 C18.56256104 343.11238761 17.53960839 330.38999523 16 318 C-38.65898041 318.14772697 -108.10441358 334.18893414 -152 367 C-152.62648438 367.45729492 -153.25296875 367.91458984 -153.8984375 368.38574219 C-177.27678165 385.51259874 -193.26846631 406.92156055 -198.36132812 436.06787109 C-198.5970993 437.70878902 -198.8020605 439.35409002 -199 441 C-201 440 -201 440 -202.09765625 437.43359375 C-205.77919942 423.42460481 -202.26356144 409.37430036 -195.4375 396.9375 C-188.59355994 386.38129425 -179.68852277 376.96156554 -170 369 C-169.08476562 368.236875 -168.16953125 367.47375 -167.2265625 366.6875 C-157.43901578 358.83733399 -146.80908793 352.34071683 -136 346 C-135.21882813 345.54061035 -134.43765625 345.0812207 -133.6328125 344.60791016 C-114.15128347 333.32935193 -91.23710649 324.22059991 -68.984375 320.5546875 C-65.42821575 319.89372596 -61.93938475 319.02236328 -58.4375 318.125 C-55.62561737 317.41420561 -52.81289864 316.70676168 -50 316 C-49.31583008 315.82678223 -48.63166016 315.65356445 -47.92675781 315.47509766 C-27.00075179 310.2509818 -5.44687356 308.70096947 16 307 C16.01417969 306.23300781 16.02835937 305.46601563 16.04296875 304.67578125 C16.76969618 287.76463757 21.04938946 271.91598691 29 257 C26.60385425 257.14165893 24.20817103 257.28818841 21.8125 257.4375 C20.80219727 257.49647461 20.80219727 257.49647461 19.77148438 257.55664062 C16.10300898 257.78927565 12.58305794 258.17207011 9 259 C8.18193166 261.85267373 7.37042204 264.70695185 6.5625 267.5625 C6.33240234 268.36236328 6.10230469 269.16222656 5.86523438 269.98632812 C3.54590934 278.22161267 2.85768109 285.90915651 2.9375 294.4375 C2.94426758 295.82098633 2.94426758 295.82098633 2.95117188 297.23242188 C2.96286062 299.48835048 2.97924545 301.74413967 3 304 C-0.77751635 301.5309073 -4.54566761 299.04785557 -8.3125 296.5625 C-9.8912793 295.53092773 -9.8912793 295.53092773 -11.50195312 294.47851562 C-18.70565981 289.71298659 -25.40312577 284.56971898 -32 279 C-33.13426101 278.07120917 -34.2704949 277.14481266 -35.41015625 276.22265625 C-36.28542969 275.50980469 -37.16070312 274.79695313 -38.0625 274.0625 C-38.96097656 273.33160156 -39.85945312 272.60070312 -40.78515625 271.84765625 C-43 270 -43 270 -45 268 C-52.39230654 267.80688088 -59.84334529 269.6402419 -67 271.3125 C-67.9075 271.51294922 -68.815 271.71339844 -69.75 271.91992188 C-75.27559074 273.18751123 -80.51878494 274.82086767 -85.82080078 276.81958008 C-89.68025772 278.25257611 -93.56970836 279.58571574 -97.46484375 280.91796875 C-142.10895504 296.26520641 -186.6272489 315.82049351 -213 357 C-213.42522949 357.65564941 -213.85045898 358.31129883 -214.28857422 358.98681641 C-220.99552292 369.4847641 -224.42265554 379.86190769 -227 392 C-227.24492187 393.010625 -227.48984375 394.02125 -227.7421875 395.0625 C-230.98833383 410.35940872 -230.34490225 427.32771931 -225 442 C-224.62617188 443.0415625 -224.25234375 444.083125 -223.8671875 445.15625 C-219.63361431 456.03457052 -213.52050795 467.03095094 -206 476 C-205.34 476 -204.68 476 -204 476 C-203.65388672 476.82177734 -203.65388672 476.82177734 -203.30078125 477.66015625 C-201.63189928 480.66213914 -199.51892884 482.9173198 -197.1875 485.4375 C-196.33542969 486.36433594 -195.48335937 487.29117188 -194.60546875 488.24609375 C-186.35532726 496.9662583 -177.70943343 504.65095025 -168 511.6875 C-166.89748901 512.48897461 -166.89748901 512.48897461 -165.77270508 513.30664062 C-156.35814373 520.03712125 -146.83598798 525.1716213 -136.125 529.5625 C-134.48337891 530.24602539 -134.48337891 530.24602539 -132.80859375 530.94335938 C-130.61696358 531.85502565 -128.42393587 532.76333989 -126.22949219 533.66821289 C-123.07434817 534.96934009 -119.92326732 536.27981669 -116.7734375 537.59375 C-115.7922998 538.00246338 -114.81116211 538.41117676 -113.80029297 538.83227539 C-112.03562737 539.56814248 -110.27154609 540.3054139 -108.50830078 541.04467773 C-85.79812335 550.53278902 -62.75847221 557.30402034 -38.1484375 559.31738281 C-33.82946767 559.67424684 -29.60941655 560.20935007 -25.33984375 560.9609375 C-18.2805851 562.18184667 -11.19293943 562.84225039 -4.0625 563.5 C3.2322197 564.17495627 10.47996004 564.8717557 17.7109375 566.0625 C23.71781129 567.0279314 29.61237963 567.35292721 35.6875 567.5 C67.90047606 568.59333163 67.90047606 568.59333163 82 575 C82.33 575.66 82.66 576.32 83 577 C67.13635258 581.14174046 52.81540853 581.27742321 36.5 580.1875 C35.83326263 580.1433194 35.16652527 580.09913879 34.47958374 580.05361938 C13.51731491 578.65052199 -7.31001306 576.31739174 -28.125 573.5 C-28.89049164 573.39835541 -29.65598328 573.29671082 -30.44467163 573.19198608 C-38.32279491 572.13865879 -45.99129154 570.92302006 -53.63476562 568.66943359 C-57.11157383 567.68539064 -60.62075326 567.11369217 -64.1875 566.5625 C-78.9976222 564.21473387 -93.16572806 559.87234655 -107.3125 555 C-108.13472046 554.71787659 -108.95694092 554.43575317 -109.80407715 554.14508057 C-143.38305288 542.56900403 -172.18999678 527.56478376 -198 503 C-198.71671875 502.33613281 -199.4334375 501.67226563 -200.171875 500.98828125 C-210.27610388 491.3488469 -217.74709094 479.66264632 -224.91748047 467.78173828 C-225.85541759 466.23797077 -226.81810472 464.70929212 -227.78515625 463.18359375 C-241.30138279 441.64750901 -245.40736879 413.68915824 -239.96875 388.9296875 C-235.85187962 371.67115446 -228.53805613 355.28538061 -218 341 C-217.37480469 340.15179688 -216.74960938 339.30359375 -216.10546875 338.4296875 C-204.32789609 323.12603912 -189.77410396 312.65935763 -173.51953125 302.5703125 C-171.81344965 301.50698723 -170.12347987 300.41744298 -168.44921875 299.3046875 C-160.63873621 294.14398348 -152.43383372 290.01538854 -144 286 C-143.09491699 285.56606934 -142.18983398 285.13213867 -141.25732422 284.68505859 C-129.21377308 278.93842022 -117.18622846 273.71432767 -104.5078125 269.53515625 C-101.35963563 268.49728446 -98.31533314 267.31868922 -95.2578125 266.0390625 C-89.23317273 263.59246387 -83.03219136 261.95834808 -76.75 260.3125 C-75.03296875 259.85133789 -75.03296875 259.85133789 -73.28125 259.38085938 C-68.19811911 258.03028332 -63.20198798 256.80502358 -58 256 C-59.16379648 252.68765616 -60.11238786 250.1101781 -63 248 C-66.36699471 248 -68.47823405 248.26766718 -71.640625 249.13671875 Z " fill="#7CB042" transform="translate(380,82)"/>
<path d="M0 0 C8 9.42857143 8 9.42857143 8 14 C5.45855077 14.75074287 2.9168498 15.50061541 0.375 16.25 C-0.40480225 16.48033936 -1.18460449 16.71067871 -1.98803711 16.94799805 C-6.50226746 18.2778821 -11.02554972 19.56189442 -15.5625 20.8125 C-50.53629982 30.86746745 -93.28213635 44.56007895 -120.55859375 69.8359375 C-123.40536687 72.3593172 -126.40227728 74.64943607 -129.4375 76.9375 C-139.21593345 84.3768121 -147.46443725 92.25436055 -155 102 C-155.72960937 102.90234375 -156.45921875 103.8046875 -157.2109375 104.734375 C-176.37380947 129.07458431 -186.60164785 159.49212757 -184.41699219 190.55664062 C-179.8698437 228.10522507 -158.68739323 261.24203448 -129.546875 284.65625 C-125.43336012 287.86670992 -121.23386258 290.95088422 -117 294 C-116.13375 294.639375 -115.2675 295.27875 -114.375 295.9375 C-111.95348693 297.68637055 -109.48757599 299.34624836 -107 301 C-106.38060547 301.42603516 -105.76121094 301.85207031 -105.12304688 302.29101562 C-92.96589912 310.61736612 -80.52796906 316.51709037 -66.82617188 321.87255859 C-64.26951753 322.89248169 -61.74973084 323.96486705 -59.234375 325.08203125 C-39.96520809 333.63010172 -19.69814024 339.70169967 0.80957031 344.48242188 C3.59900576 345.14153948 6.37486342 345.84897957 9.15161133 346.55932617 C25.20453817 350.65249483 41.33600522 353.90661572 57.68139648 356.60864258 C59.4550159 356.90801206 61.22318505 357.23984021 62.98828125 357.5859375 C68.53710323 358.34881056 74.14654455 358.35775842 79.74023438 358.51757812 C84.83128651 358.6947454 89.89156453 358.97174822 94.96142578 359.4699707 C110.33181711 360.97932772 125.559954 361.35776903 141 361.3125 C142.26358337 361.31100952 143.52716675 361.30951904 144.82904053 361.3079834 C166.68100392 361.26189164 188.2771586 360.33930792 210 358 C210.73607483 357.92267639 211.47214966 357.84535278 212.23052979 357.76568604 C226.99801247 356.21364469 241.62404854 354.60664521 255.94824219 350.53857422 C259.3422702 349.64766206 262.77780982 348.96063566 266.21240234 348.24536133 C315.56988413 337.95343935 368.09175799 319.94807549 407.16845703 287.51123047 C409.58640915 285.51614601 412.04078488 283.56887882 414.5 281.625 C416.00186958 280.41899121 417.50202389 279.21084145 419 278 C420.02287109 277.18208984 420.02287109 277.18208984 421.06640625 276.34765625 C426.85250711 271.53534145 431.3884172 265.92240942 436 260 C436.7321875 259.09507812 437.464375 258.19015625 438.21875 257.2578125 C457.01930284 233.35992668 468.99815351 201.7419981 466.41699219 171.01855469 C464.90620827 160.08217747 461.42486055 149.46208612 458 139 C457.75507812 138.2354248 457.51015625 137.47084961 457.2578125 136.68310547 C451.69025742 119.91600095 439.36317142 104.34556006 427 92 C426.04132548 90.97540418 425.08568922 89.94795873 424.1328125 88.91796875 C403.82942959 67.32981117 377.0763932 51.03285015 349.58203125 40.34472656 C342.15491877 37.41878638 342.15491877 37.41878638 340 35 C339.609375 31.86328125 339.609375 31.86328125 339.75 28.3125 C339.78609375 27.13300781 339.8221875 25.95351563 339.859375 24.73828125 C339.92898438 23.38283203 339.92898438 23.38283203 340 22 C344.46245771 22.65572551 348.29611912 24.32655573 352.35546875 26.203125 C353.05714676 26.52279236 353.75882477 26.84245972 354.48176575 27.17181396 C355.96464196 27.84856118 357.44636677 28.52783632 358.92700195 29.20947266 C361.16046861 30.23755721 363.39722971 31.25815071 365.63476562 32.27734375 C389.11893252 43.00221575 411.01981919 55.25830583 430 73 C430.70511719 73.65597168 431.41023437 74.31194336 432.13671875 74.98779297 C453.30184661 94.88246673 466.79231578 116.11992979 475 144 C475.28359375 144.9178125 475.5671875 145.835625 475.859375 146.78125 C481.64684398 167.33267046 482.40917412 188.2293548 478 209 C477.7831958 210.03592285 477.7831958 210.03592285 477.56201172 211.09277344 C473.65737345 229.29712241 465.54995172 247.63164467 454.37109375 262.62109375 C451.83007649 266.07237099 450.22918579 269.66885277 448.625 273.625 C440.48082012 292.79310641 429.07305773 309.06578979 415.26757812 324.55615234 C414.17535407 325.80026118 413.12264569 327.07886048 412.078125 328.36328125 C408.24678023 333.06123971 403.97548727 336.41466123 399.00390625 339.87109375 C396.39396298 341.72079347 393.8966167 343.66053769 391.4050293 345.66503906 C384.35607686 351.29728498 376.88534425 355.66610104 368.95361328 359.93408203 C365.93270072 361.582333 362.97217075 363.3278884 360 365.0625 C343.98116763 374.18761063 327.95345269 380.90051364 310.16796875 385.8125 C304.53741673 387.38979749 298.9605881 389.14670221 293.375 390.875 C285.19572516 393.40292552 277.01304718 395.91685454 268.8125 398.375 C268.01827637 398.61331543 267.22405273 398.85163086 266.40576172 399.09716797 C264.93878519 399.5358988 263.47120719 399.97262536 262.00292969 400.40698242 C260.14720789 400.95641541 258.29418114 401.51492885 256.44140625 402.07421875 C252.69710966 403.08148128 248.945021 403.79985964 245.125 404.4375 C243.60279038 404.6961783 242.08065681 404.95530445 240.55859375 405.21484375 C239.79272949 405.34487793 239.02686523 405.47491211 238.23779297 405.60888672 C236.1868861 405.96733673 234.14185285 406.35898138 232.09765625 406.75390625 C221.62985838 408.75125829 211.13431503 409.93426303 200.53198242 410.99804688 C199.37158447 411.11470703 198.21118652 411.23136719 197.015625 411.3515625 C195.97696289 411.45291504 194.93830078 411.55426758 193.86816406 411.65869141 C191.06389413 411.94388829 191.06389413 411.94388829 188.60498047 412.53222656 C185.16813196 413.14937762 181.78367892 413.14284359 178.3046875 413.1328125 C177.18430588 413.13424759 177.18430588 413.13424759 176.04129028 413.13571167 C174.45607418 413.13639104 172.87085526 413.13455371 171.28564453 413.13037109 C168.93124609 413.12512532 166.57704793 413.13026836 164.22265625 413.13671875 C156.43767809 413.14009051 148.69354534 412.97803257 140.921875 412.515625 C133.47546417 412.07284442 126.04476591 411.879175 118.5859375 411.7890625 C117.50943939 411.77477203 116.43294128 411.76048157 115.32382202 411.74575806 C110.89202806 411.68837407 106.46035494 411.63355109 102.02832031 411.59863281 C88.65578446 411.4850074 76.09084127 410.70826499 63 408 C59.38223271 407.44126926 55.75484674 406.97280419 52.125 406.5 C45.86730027 405.64836706 39.9297752 404.5920626 33.8828125 402.734375 C30.80902131 401.9513496 27.78617204 401.50714354 24.64697266 401.08007812 C3.82695182 398.21303105 -15.24277438 390.56127896 -34.51220703 382.45703125 C-39.22530996 380.48812475 -43.96034616 378.57527892 -48.69628906 376.66210938 C-54.13881662 374.46074019 -59.57068811 372.23373259 -65 370 C-66.26384521 369.48179687 -66.26384521 369.48179687 -67.55322266 368.953125 C-75.20350748 365.79663462 -82.40450947 362.44343534 -89.30078125 357.8046875 C-92.26620979 355.82201313 -95.30958594 354.01136643 -98.375 352.1875 C-107.37568869 346.65850552 -115.93605544 340.4635672 -123.20703125 332.76171875 C-125.44001651 330.56765262 -127.85392729 328.68736901 -130.3125 326.75 C-146.21870069 313.87666885 -156.28234053 296.62039619 -163.4375 277.6875 C-165.64073255 272.19420543 -168.85067207 268.33086863 -172.67578125 263.8671875 C-191.60239211 240.51906587 -202.65884385 200.1038253 -200.25878906 170.23144531 C-195.91933629 132.81389969 -179.09948696 99.36969763 -149.81689453 75.49511719 C-148.0699264 74.05754223 -146.35695299 72.58898215 -144.65234375 71.1015625 C-137.66405564 65.01965209 -130.38648309 59.539176 -122.78369141 54.25146484 C-120.96117204 52.97275772 -119.15651256 51.67203654 -117.35546875 50.36328125 C-94.68433228 33.8988079 -69.34141688 23.19299302 -43.08496094 13.76123047 C-40.07786305 12.66332283 -37.10279578 11.48719402 -34.125 10.3125 C-22.77388879 5.95550782 -12.0583934 3.26754896 0 2 C0 1.34 0 0.68 0 0 Z " fill="#565656" transform="translate(308,316)"/>
<path d="M0 0 C0.33 0.66 0.66 1.32 1 2 C0.0218596 4.01078128 -0.98192066 6.00914228 -2 8 C-6.28151507 21.44360493 -6.894829 37.39074284 -3 51 C-2.77828125 51.92941406 -2.5565625 52.85882813 -2.328125 53.81640625 C2.29311383 71.23324504 12.18453687 85.68300362 24 99 C24.48114258 99.55268555 24.96228516 100.10537109 25.45800781 100.67480469 C37.37727886 114.34813804 51.25262423 125.99367735 65.375 137.3125 C95.4545442 161.8395702 95.4545442 161.8395702 105 177 C103.57573924 181.27278228 100.45432438 182.2864505 96.6875 184.3125 C95.95837402 184.7142041 95.22924805 185.1159082 94.47802734 185.52978516 C90.40980327 187.75458124 86.3017634 189.86004944 82.125 191.875 C69.90421755 197.87731628 58.43032577 205.42198091 47.50390625 213.515625 C46.67761719 214.00546875 45.85132813 214.4953125 45 215 C41.23637591 213.74545864 40.26260282 212.15439966 37.8125 209.0625 C37.01457031 208.06347656 36.21664063 207.06445312 35.39453125 206.03515625 C34.60433594 205.03355469 33.81414062 204.03195312 33 203 C31.66759538 201.33259079 30.33431139 199.66588375 29 198 C28.34773438 197.18273437 27.69546875 196.36546875 27.0234375 195.5234375 C22.62009863 190.03201489 18.17700503 184.57151995 13.62890625 179.19921875 C3.33923763 167.03271458 -6.1427936 154.24442078 -15 141 C-15.69996094 139.989375 -16.39992188 138.97875 -17.12109375 137.9375 C-22.90943332 129.18386738 -26.15680087 120.05389316 -29 110 C-29.27263672 109.07151245 -29.27263672 109.07151245 -29.55078125 108.12426758 C-30.11670628 105.44811883 -30.21877714 102.87424 -30.31640625 100.140625 C-30.37924805 98.46806641 -30.37924805 98.46806641 -30.44335938 96.76171875 C-30.48267578 95.60285156 -30.52199219 94.44398438 -30.5625 93.25 C-30.60568359 92.07566406 -30.64886719 90.90132813 -30.69335938 89.69140625 C-30.79934794 86.79438549 -30.90141638 83.89728065 -31 81 C-33.37959509 87.77864981 -34.46895229 93.76304508 -34.3125 100.9375 C-34.29832031 101.81792969 -34.28414062 102.69835937 -34.26953125 103.60546875 C-33.71520706 127.0256657 -22.43472043 148.95791219 -8 167 C-7.50161621 167.62841797 -7.00323242 168.25683594 -6.48974609 168.90429688 C-0.33611342 176.64928932 5.96168677 184.17200645 12.67578125 191.4375 C16.63902301 195.8070573 20.31814948 200.39315255 24 205 C24.9908355 206.22139466 25.98172357 207.44274668 26.97265625 208.6640625 C27.98241074 209.92136135 28.99153328 211.17916801 30 212.4375 C30.72207642 213.32465698 30.72207642 213.32465698 31.45874023 214.22973633 C35.56557841 219.39864952 35.56557841 219.39864952 36 223 C33.97265625 225.4453125 33.97265625 225.4453125 31.0625 228.125 C30.03321722 229.11121176 29.00720439 230.10084682 27.984375 231.09375 C27.47455078 231.58617187 26.96472656 232.07859375 26.43945312 232.5859375 C9.84472278 248.88795211 4.42675657 271.91164149 3.4375 294.4375 C3.37272461 295.82098633 3.37272461 295.82098633 3.30664062 297.23242188 C3.20145069 299.48816163 3.09930893 301.74399499 3 304 C-1.40573028 302.49842151 -4.9106609 300.10890963 -8.625 297.375 C-9.23891602 296.92914551 -9.85283203 296.48329102 -10.48535156 296.02392578 C-11.73495387 295.1157431 -12.98301682 294.2054384 -14.22949219 293.29296875 C-15.81589195 292.13445067 -17.41128625 290.98827272 -19.0078125 289.84375 C-23.47772594 286.63458138 -27.87574293 283.3567168 -32.1875 279.9375 C-33.00734375 279.2878125 -33.8271875 278.638125 -34.671875 277.96875 C-37 276 -37 276 -39.015625 273.90625 C-42.58726799 270.15481278 -42.58726799 270.15481278 -47.41625977 268.85058594 C-54.04159311 269.65380461 -60.50113211 270.79394351 -67 272.3125 C-67.9075 272.51294922 -68.815 272.71339844 -69.75 272.91992188 C-75.27559074 274.18751123 -80.51878494 275.82086767 -85.82080078 277.81958008 C-89.68025772 279.25257611 -93.56970836 280.58571574 -97.46484375 281.91796875 C-130.10520639 293.13869615 -159.38674647 305.93118875 -186.4375 327.6875 C-187.41323975 328.47120972 -187.41323975 328.47120972 -188.40869141 329.27075195 C-195.38252795 334.97295215 -201.35186923 340.94038807 -206.375 348.4375 C-206.8405127 349.12996826 -207.30602539 349.82243652 -207.78564453 350.53588867 C-209.20828575 352.67954482 -210.60831094 354.83614158 -212 357 C-212.64001953 357.98564941 -212.64001953 357.98564941 -213.29296875 358.99121094 C-219.99759918 369.48702434 -223.42332584 379.8650645 -226 392 C-226.24492187 393.010625 -226.48984375 394.02125 -226.7421875 395.0625 C-229.98833383 410.35940872 -229.34490225 427.32771931 -224 442 C-223.62617188 443.0415625 -223.25234375 444.083125 -222.8671875 445.15625 C-219.01612687 455.05169055 -213.73970035 464.21770766 -207.06640625 472.4765625 C-206 474 -206 474 -206 476 C-205.34 476 -204.68 476 -204 476 C-202.5546875 477.3984375 -202.5546875 477.3984375 -200.875 479.375 C-200.24851563 480.10589844 -199.62203125 480.83679688 -198.9765625 481.58984375 C-197.67026936 483.18269527 -196.39324046 484.80005213 -195.1484375 486.44140625 C-190.12792643 493.04244858 -184.56688721 497.96711006 -178 503 C-176.97648437 503.8146875 -175.95296875 504.629375 -174.8984375 505.46875 C-157.00784924 519.66039392 -137.87391322 528.2345934 -116.703125 536.51171875 C-113.99956978 537.59827417 -111.33586852 538.71865527 -108.671875 539.89453125 C-86.16101201 549.78642716 -62.68697303 556.30813215 -38.14770508 558.31762695 C-33.82894249 558.67412966 -29.60917446 559.20939269 -25.33984375 559.9609375 C-18.2805851 561.18184667 -11.19293943 561.84225039 -4.0625 562.5 C3.2322197 563.17495627 10.47996004 563.8717557 17.7109375 565.0625 C23.71781129 566.0279314 29.61237963 566.35292721 35.6875 566.5 C70.08052325 567.66732401 70.08052325 567.66732401 83 575 C83 575.66 83 576.32 83 577 C67.20623192 582.57579661 53.08637261 582.29552451 36.5 581.1875 C35.49989395 581.1212291 35.49989395 581.1212291 34.47958374 581.05361938 C13.51731491 579.65052199 -7.31001306 577.31739174 -28.125 574.5 C-28.89049164 574.39835541 -29.65598328 574.29671082 -30.44467163 574.19198608 C-38.32279491 573.13865879 -45.99129154 571.92302006 -53.63476562 569.66943359 C-57.11157383 568.68539064 -60.62075326 568.11369217 -64.1875 567.5625 C-78.9976222 565.21473387 -93.16572806 560.87234655 -107.3125 556 C-108.13472046 555.71787659 -108.95694092 555.43575317 -109.80407715 555.14508057 C-143.37184203 543.57286888 -172.21038095 528.5755571 -198 504 C-198.79019531 503.26265625 -199.58039063 502.5253125 -200.39453125 501.765625 C-210.78926255 491.78959566 -218.51536985 480.04659434 -225.91748047 467.78173828 C-226.85541759 466.23797077 -227.81810472 464.70929212 -228.78515625 463.18359375 C-242.30138279 441.64750901 -246.40736879 413.68915824 -240.96875 388.9296875 C-236.85122973 371.66843 -229.53573793 355.28961306 -219 341 C-218.07960937 339.74509766 -218.07960937 339.74509766 -217.140625 338.46484375 C-205.10311852 322.77131774 -190.19452452 311.92030832 -173.51953125 301.5703125 C-171.81344965 300.50698723 -170.12347987 299.41744298 -168.44921875 298.3046875 C-160.63873621 293.14398348 -152.43383372 289.01538854 -144 285 C-143.09491699 284.56606934 -142.18983398 284.13213867 -141.25732422 283.68505859 C-129.21377308 277.93842022 -117.18622846 272.71432767 -104.5078125 268.53515625 C-101.36056332 267.4972482 -98.31531946 266.32042875 -95.2578125 265.04296875 C-89.22875883 262.59574493 -83.03090495 260.920606 -76.75 259.25 C-75.6053125 258.93417969 -74.460625 258.61835938 -73.28125 258.29296875 C-72.17265625 257.99519531 -71.0640625 257.69742187 -69.921875 257.390625 C-68.92768555 257.12282227 -67.93349609 256.85501953 -66.90917969 256.57910156 C-63.86711949 255.97354879 -61.09354796 255.89776243 -58 256 C-58.43570313 255.38253906 -58.87140625 254.76507813 -59.3203125 254.12890625 C-60.57675583 252.34214594 -61.8276484 250.55147485 -63.07421875 248.7578125 C-64.20617171 247.13680076 -65.34968358 245.52356736 -66.51953125 243.9296875 C-76.97349798 229.24229623 -81.76521781 212.2966395 -86 195 C-86.31022095 193.84721558 -86.31022095 193.84721558 -86.62670898 192.67114258 C-88.69308138 184.11806983 -88.35384369 175.30584661 -88.3125 166.5625 C-88.30968018 165.70974487 -88.30686035 164.85698975 -88.30395508 163.97839355 C-88.24314302 151.77524883 -88.13866294 139.86550004 -85 128 C-84.74186523 127.02240723 -84.48373047 126.04481445 -84.21777344 125.03759766 C-74.53060137 89.48041955 -57.03056059 59.05398106 -32.49560547 31.68432617 C-30.40322632 29.32792334 -28.36026608 26.93055707 -26.3190918 24.52978516 C-24.63345867 22.57491246 -22.92648257 20.72007373 -21 19 C-20.34 19 -19.68 19 -19 19 C-18.67 18.01 -18.34 17.02 -18 16 C-16.50390625 14.4921875 -16.50390625 14.4921875 -14.5625 12.875 C-11.15794209 9.98946726 -7.81204967 7.05418071 -4.5 4.0625 C-3.6440625 3.29035156 -2.788125 2.51820312 -1.90625 1.72265625 C-0.96265625 0.86994141 -0.96265625 0.86994141 0 0 Z " fill="#019445" transform="translate(380,82)"/>
<path d="M0 0 C5.30018387 0.59355371 9.58136893 2.37372632 14.375 4.5625 C15.11105469 4.89185547 15.84710937 5.22121094 16.60546875 5.56054688 C18.40644557 6.36747805 20.20362181 7.1828826 22 8 C22.33 6.68 22.66 5.36 23 4 C23.02716089 7.02089478 23.04691657 10.04154129 23.0625 13.0625 C23.07087891 13.91005859 23.07925781 14.75761719 23.08789062 15.63085938 C23.10683006 20.5361722 22.83326345 25.16444755 22 30 C23.134375 30.33 24.26875 30.66 25.4375 31 C59.66083493 42.5148936 90.31407533 65.8965622 110 96 C110.47373047 96.71897461 110.94746094 97.43794922 111.43554688 98.17871094 C126.77388119 121.56128107 139.65511293 145.15435174 134.3359375 174.1015625 C131.11646194 187.39939635 124.73359891 205.88823609 114 215 C113.34 215 112.68 215 112 215 C111.80887409 209.15418328 112.40304951 204.10092834 113.8125 198.4375 C113.97814453 197.72142578 114.14378906 197.00535156 114.31445312 196.26757812 C115.44023353 191.59877563 117.07304309 187.41092481 119 183 C123.72199548 168.50236839 125.46527612 153.58135669 120 139 C119.45472656 137.54013672 119.45472656 137.54013672 118.8984375 136.05078125 C112.14733581 119.04236053 101.86431779 104.74597086 90 91 C89.38253906 90.27039063 88.76507812 89.54078125 88.12890625 88.7890625 C86.45092796 86.82819179 84.73697465 84.90872046 83 83 C82.39542969 82.31808594 81.79085938 81.63617188 81.16796875 80.93359375 C67.8517389 66.70075917 50.26771055 57.98010657 32.9375 49.6875 C31.58126011 49.03605726 30.2251394 48.38436635 28.86914062 47.73242188 C25.58079455 46.15208764 22.29085381 44.57510679 19 43 C18.88785156 44.15628906 18.77570313 45.31257813 18.66015625 46.50390625 C18.10754916 50.87959338 16.94273312 54.80401178 15.4375 58.9375 C15.17936523 59.65897217 14.92123047 60.38044434 14.65527344 61.1237793 C11.12479747 70.72057545 6.59675519 79.87684811 2 89 C2.68964844 89.12117188 3.37929688 89.24234375 4.08984375 89.3671875 C15.91582737 91.93874367 26.59388013 97.66353125 37.1875 103.3125 C38.35031494 103.92818848 39.51312988 104.54387695 40.71118164 105.17822266 C51.25708347 110.89098959 61.50843205 117.21851457 70.25 125.5 C70.97920654 126.18908447 70.97920654 126.18908447 71.72314453 126.89208984 C73.15664525 128.25313926 74.57857001 129.62634917 76 131 C76.83789062 131.78632813 77.67578125 132.57265625 78.5390625 133.3828125 C90.05654993 144.43805963 96.85338016 157.77433421 97.375 173.875 C97.30557404 180.31772941 95.94170676 185.30044315 93 191 C91.15625 190.9453125 91.15625 190.9453125 89 190 C87.93861288 187.57485386 87.18935094 185.40760268 86.5 182.875 C86.28988281 182.16013428 86.07976562 181.44526855 85.86328125 180.70874023 C84.82445885 177.12991838 83.87189937 173.53321217 82.96875 169.91796875 C79.74500211 157.0879721 75.11882641 149.53404443 66 140 C65.48050781 139.40574219 64.96101563 138.81148437 64.42578125 138.19921875 C49.9952335 122.32940377 27.22570439 112.88966694 8.3125 103.75 C7.32628662 103.27175781 6.34007324 102.79351562 5.32397461 102.30078125 C4.4088208 101.86636719 3.49366699 101.43195313 2.55078125 100.984375 C1.74294189 100.59991211 0.93510254 100.21544922 0.1027832 99.81933594 C-2.08975522 98.81847151 -2.08975522 98.81847151 -5 99 C-6.82548036 101.14994368 -6.82548036 101.14994368 -8.6875 104 C-27.34284184 130.05424013 -55.80043998 146.21991999 -85 158 C-85.62326172 158.25394531 -86.24652344 158.50789062 -86.88867188 158.76953125 C-97.31298077 163 -97.31298077 163 -101 163 C-101 163.66 -101 164.32 -101 165 C-101.9178125 165.31453125 -102.835625 165.6290625 -103.78125 165.953125 C-109.71173613 168.02131974 -115.47957712 170.08284626 -121.03125 173.046875 C-123.36325395 174.17586104 -125.73404618 174.98058175 -128.1875 175.8125 C-133.74447755 177.76014721 -138.73840651 180.42781975 -143.859375 183.31640625 C-147 185 -147 185 -150.32421875 186.375 C-164.04011117 192.11543887 -176.19422192 201.97034824 -187 212 C-187.76570313 212.68449219 -188.53140625 213.36898437 -189.3203125 214.07421875 C-200.75828719 224.77208919 -207.37301018 238.64709842 -213 253 C-213.33 253 -213.66 253 -214 253 C-213.80389127 242.5884091 -211.48167649 233.69622706 -208 224 C-207.46052734 222.45505859 -207.46052734 222.45505859 -206.91015625 220.87890625 C-195.20266646 190.17278533 -169.54055492 171.59294516 -140.86328125 157.90332031 C-138.94460614 156.97314501 -137.05220856 155.99896327 -135.15625 155.0234375 C-131.4055438 153.14151058 -127.57043173 151.57841773 -123.66455078 150.04931641 C-118.89170607 148.16974095 -114.16939606 146.16740172 -109.4375 144.1875 C-101.5084932 140.87503498 -93.57556895 137.57353918 -85.61694336 134.33276367 C-61.821551 124.59445803 -38.1077507 112.65528528 -20 94 C-20 93.67 -20 93.34 -20 93 C-20.85722656 92.74605469 -21.71445312 92.49210937 -22.59765625 92.23046875 C-28.55843442 90.43618716 -34.35255322 88.62671943 -40 86 C-39.06725891 84.87105124 -38.12859878 83.74699124 -37.1875 82.625 C-36.40439453 81.68527344 -36.40439453 81.68527344 -35.60546875 80.7265625 C-34 79 -34 79 -31 77 C-28.45367161 77.68020387 -26.13440217 78.43333503 -23.6875 79.375 C-17.02801233 81.98725738 -17.02801233 81.98725738 -10 82 C-3.4839137 75.67176484 0.73682535 66.11019547 5 58.1875 C5.48106201 57.30489502 5.96212402 56.42229004 6.45776367 55.51293945 C6.90482666 54.65659912 7.35188965 53.80025879 7.8125 52.91796875 C8.40998047 51.78524536 8.40998047 51.78524536 9.01953125 50.62963867 C10.41142046 47.20509334 10.41142046 47.20509334 11 40 C2.09 36.04 2.09 36.04 -7 32 C-6.35842353 27.50896474 -5.79841212 23.8448394 -4.5 19.625 C-4.2421875 18.77164062 -3.984375 17.91828125 -3.71875 17.0390625 C-3 15 -3 15 -2 14 C-1.79028092 12.40089201 -1.6317933 10.79490754 -1.5 9.1875 C-1.23770892 6.01658817 -0.85788192 3.06692788 0 0 Z " fill="#7DB044" transform="translate(625,328)"/>
<path d="M0 0 C2.71484375 2.1171875 2.71484375 2.1171875 4.9375 4.875 C6.06478516 6.23238281 6.06478516 6.23238281 7.21484375 7.6171875 C9 10 9 10 10 12 C9.19481934 12.15557373 8.38963867 12.31114746 7.56005859 12.47143555 C4.4978954 13.06857271 1.43788652 13.67560057 -1.62109375 14.28881836 C-3.56625922 14.67581339 -5.51357612 15.05194519 -7.4609375 15.42773438 C-15.0006025 16.94720768 -22.09258901 18.91709352 -29.29345703 21.61450195 C-33.42402528 23.15849977 -37.58470667 24.59188608 -41.7578125 26.015625 C-74.2930693 37.19821851 -103.47652685 50.00339708 -130.4375 71.6875 C-131.08799316 72.20997314 -131.73848633 72.73244629 -132.40869141 73.27075195 C-139.38252795 78.97295215 -145.35186923 84.94038807 -150.375 92.4375 C-150.8405127 93.12996826 -151.30602539 93.82243652 -151.78564453 94.53588867 C-153.20828575 96.67954482 -154.60831094 98.83614158 -156 101 C-156.42667969 101.65709961 -156.85335937 102.31419922 -157.29296875 102.99121094 C-163.99759918 113.48702434 -167.42332584 123.8650645 -170 136 C-170.24492187 137.010625 -170.48984375 138.02125 -170.7421875 139.0625 C-173.98833383 154.35940872 -173.34490225 171.32771931 -168 186 C-167.62617188 187.0415625 -167.25234375 188.083125 -166.8671875 189.15625 C-163.01612687 199.05169055 -157.73970035 208.21770766 -151.06640625 216.4765625 C-150 218 -150 218 -150 220 C-149.34 220 -148.68 220 -148 220 C-146.5546875 221.3984375 -146.5546875 221.3984375 -144.875 223.375 C-144.24851563 224.10589844 -143.62203125 224.83679688 -142.9765625 225.58984375 C-141.67026936 227.18269527 -140.39324046 228.80005213 -139.1484375 230.44140625 C-134.12792643 237.04244858 -128.56688721 241.96711006 -122 247 C-120.97648437 247.8146875 -119.95296875 248.629375 -118.8984375 249.46875 C-101.00784924 263.66039392 -81.87391322 272.2345934 -60.703125 280.51171875 C-57.99956978 281.59827417 -55.33586852 282.71865527 -52.671875 283.89453125 C-30.16101201 293.78642716 -6.68697303 300.30813215 17.85229492 302.31762695 C22.17105751 302.67412966 26.39082554 303.20939269 30.66015625 303.9609375 C37.7194149 305.18184667 44.80706057 305.84225039 51.9375 306.5 C59.2322197 307.17495627 66.47996004 307.8717557 73.7109375 309.0625 C79.71781129 310.0279314 85.61237963 310.35292721 91.6875 310.5 C126.08052325 311.66732401 126.08052325 311.66732401 139 319 C139 319.66 139 320.32 139 321 C123.20623192 326.57579661 109.08637261 326.29552451 92.5 325.1875 C91.83326263 325.1433194 91.16652527 325.09913879 90.47958374 325.05361938 C69.51731491 323.65052199 48.68998694 321.31739174 27.875 318.5 C27.10950836 318.39835541 26.34401672 318.29671082 25.55532837 318.19198608 C17.67720509 317.13865879 10.00870846 315.92302006 2.36523438 313.66943359 C-1.11157383 312.68539064 -4.62075326 312.11369217 -8.1875 311.5625 C-22.9976222 309.21473387 -37.16572806 304.87234655 -51.3125 300 C-52.13472046 299.71787659 -52.95694092 299.43575317 -53.80407715 299.14508057 C-87.37184203 287.57286888 -116.21038095 272.5755571 -142 248 C-142.79019531 247.26265625 -143.58039063 246.5253125 -144.39453125 245.765625 C-154.78926255 235.78959566 -162.51536985 224.04659434 -169.91748047 211.78173828 C-170.85541759 210.23797077 -171.81810472 208.70929212 -172.78515625 207.18359375 C-186.30138279 185.64750901 -190.40736879 157.68915824 -184.96875 132.9296875 C-180.85122973 115.66843 -173.53573793 99.28961306 -163 85 C-162.38640625 84.16339844 -161.7728125 83.32679688 -161.140625 82.46484375 C-149.10311852 66.77131774 -134.19452452 55.92030832 -117.51953125 45.5703125 C-115.81344965 44.50698723 -114.12347987 43.41744298 -112.44921875 42.3046875 C-104.63873621 37.14398348 -96.43383372 33.01538854 -88 29 C-87.09491699 28.56606934 -86.18983398 28.13213867 -85.25732422 27.68505859 C-73.21377308 21.93842022 -61.18622846 16.71432767 -48.5078125 12.53515625 C-45.35863248 11.49638563 -42.31010806 10.31971075 -39.25 9.04296875 C-33.26033744 6.61267505 -27.11169976 4.92221064 -20.875 3.25 C-19.74707031 2.93417969 -18.61914062 2.61835938 -17.45703125 2.29296875 C-5.83829187 -0.84612926 -5.83829187 -0.84612926 0 0 Z " fill="#575757" transform="translate(324,338)"/>
<path d="M0 0 C0.66 0.33 1.32 0.66 2 1 C-24.99740445 37.35753607 -74.03149869 60.57710051 -116 74 C-116.86995605 74.28182129 -117.73991211 74.56364258 -118.63623047 74.85400391 C-124.14560948 76.63720529 -129.66053866 78.40173419 -135.19042969 80.12036133 C-137.16370459 80.73816716 -139.13279627 81.36941725 -141.09863281 82.01049805 C-148.74828346 84.46273709 -156.34000875 86.18865942 -164.25 87.5625 C-165.33667969 87.75779297 -166.42335938 87.95308594 -167.54296875 88.15429688 C-169.8102405 88.56039514 -172.07851138 88.96094746 -174.34765625 89.35644531 C-176.90041001 89.80624872 -179.44853473 90.26794708 -181.99609375 90.74511719 C-191.68217358 92.54083115 -201.3594046 93.86036911 -211.15673828 94.88037109 C-213.49989136 95.12498866 -215.84171661 95.38020185 -218.18359375 95.63671875 C-233.91452428 97.33102782 -249.55439107 98.19111854 -265.375 98.125 C-266.11778198 98.12245209 -266.86056396 98.11990417 -267.62585449 98.11727905 C-272.31636223 98.09875639 -277.0065655 98.06343061 -281.69689941 98.01959229 C-283.92781804 98.00061405 -286.15867557 97.98849463 -288.38964844 97.97802734 C-326.88161494 97.7558381 -365.68605741 92.84297072 -402.67480469 81.95410156 C-405.81485005 81.05312526 -408.96126352 80.25356287 -412.13671875 79.48828125 C-418.13386025 78.01458434 -423.96411274 76.164056 -429.8125 74.1875 C-430.85857422 73.8363916 -431.90464844 73.4852832 -432.98242188 73.12353516 C-439.93022168 70.76647583 -446.75056819 68.22953033 -453.5234375 65.40625 C-456.54162183 64.1854114 -459.57840939 63.11031751 -462.65869141 62.05981445 C-491.33141159 52.07384722 -518.89245188 31.5220468 -540 10 C-539.67 9.34 -539.34 8.68 -539 8 C-538.40574219 8.43570313 -537.81148437 8.87140625 -537.19921875 9.3203125 C-536.37035156 9.91585937 -535.54148437 10.51140625 -534.6875 11.125 C-533.88699219 11.70507812 -533.08648438 12.28515625 -532.26171875 12.8828125 C-522.96772734 18.91555902 -512.90042688 23.52350226 -502.875 28.1875 C-502.18112183 28.51159851 -501.48724365 28.83569702 -500.77233887 29.1696167 C-463.70499236 47.43743732 -463.70499236 47.43743732 -424.28027344 58.83422852 C-417.19662293 60.0626221 -410.30777906 61.93188308 -403.375 63.81640625 C-396.96397922 65.55620786 -390.669059 67.15242313 -384.0625 68 C-380.35034651 68.47733776 -376.81536229 69.04626272 -373.18139648 69.95678711 C-366.67629693 71.41473495 -360.07157006 71.77422599 -353.4375 72.25390625 C-352.03698133 72.36013995 -350.63650995 72.46699877 -349.23608398 72.57444763 C-345.5706788 72.8542189 -341.90475782 73.12649674 -338.23864746 73.39685059 C-332.37288673 73.83088937 -326.50805309 74.27733903 -320.64309692 74.72208977 C-318.61108213 74.87524457 -316.57888567 75.02574211 -314.54663086 75.17567444 C-304.19500381 75.94958933 -304.19500381 75.94958933 -299.12353516 76.56176758 C-294.89322846 77.05666965 -290.71698305 77.1443185 -286.4609375 77.1328125 C-285.27365051 77.13492737 -285.27365051 77.13492737 -284.06237793 77.13708496 C-281.49987229 77.13920841 -278.93749303 77.13293933 -276.375 77.125 C-275.49571838 77.1234491 -274.61643677 77.12189819 -273.71051025 77.12030029 C-261.76189031 77.09566954 -249.81887213 76.96795021 -237.875 76.625 C-236.67020996 76.59422363 -235.46541992 76.56344727 -234.22412109 76.53173828 C-227.13698031 76.29222055 -220.25981892 75.57580485 -213.25830078 74.44604492 C-209.82787394 73.97643681 -206.45913809 73.80094349 -203 73.6875 C-195.85127741 73.26267837 -189.18261422 71.81383605 -182.22924805 70.14916992 C-174.12892252 68.21922431 -165.99010742 66.56707372 -157.8125 65 C-157.15716278 64.87365173 -156.50182556 64.74730347 -155.82662964 64.61712646 C-148.75278557 63.2541294 -141.67315047 61.93270461 -134.578125 60.68359375 C-114.92721465 57.21253123 -97.32683681 51.54120089 -78.83251953 44.12451172 C-76.22895678 43.09089596 -73.61642755 42.08781639 -70.99609375 41.09765625 C-52.32601172 33.97687714 -33.44242364 25.70968568 -17.66113281 13.28857422 C-14.39749504 10.75690459 -11.02944587 8.36420618 -7.6875 5.9375 C-3.68288121 3.1574866 -3.68288121 3.1574866 0 0 Z " fill="#FBFBFB" transform="translate(722,615)"/>
<path d="M0 0 C0.99 0.33 1.98 0.66 3 1 C3.45331957 9.06431649 -0.1048045 15.45259012 -5.1328125 21.61328125 C-9.69364913 26.33216667 -14.70020696 30.52189986 -19.8125 34.625 C-20.33199219 35.04402588 -20.85148438 35.46305176 -21.38671875 35.89477539 C-31.67800995 43.89483863 -43.00559118 49.66297352 -54.8125 55 C-57.47965346 56.22007478 -60.14419615 57.44579584 -62.80859375 58.671875 C-63.44843201 58.96543884 -64.08827026 59.25900269 -64.74749756 59.5614624 C-69.35145343 61.6803276 -73.87706863 63.91685498 -78.375 66.25 C-120.29260761 87.64857835 -168.44376694 103.26878794 -215.75 103.125 C-217.68166016 103.13080078 -217.68166016 103.13080078 -219.65234375 103.13671875 C-220.89628906 103.13542969 -222.14023437 103.13414062 -223.421875 103.1328125 C-224.54174805 103.13168457 -225.66162109 103.13055664 -226.81542969 103.12939453 C-229.95604947 103.00178578 -232.91490346 102.58594723 -236 102 C-234.99114854 99.26914347 -234.26054998 98.15912481 -231.7421875 96.62109375 C-219.02097002 91.36969198 -206.53273516 89.94638723 -192.9375 89 C-173.71191515 87.63888461 -156.36713213 82.75678005 -138 77 C-137.07429199 76.71108887 -136.14858398 76.42217773 -135.19482422 76.12451172 C-122.12582995 71.98140995 -109.97047201 66.39016478 -97.69873047 60.30859375 C-94.98828948 58.99432166 -92.25412123 57.75203912 -89.50390625 56.5234375 C-83.87886615 53.98875566 -78.4440163 51.14923327 -73 48.25 C-66.499779 44.80121586 -59.99502598 41.49501253 -53.27001953 38.50708008 C-44.41101974 34.55078262 -37.64055732 29.92496485 -30.53271484 23.36865234 C-27.94643416 21.05920833 -25.19854112 18.96961113 -22.4375 16.875 C-21.90471436 16.46894531 -21.37192871 16.06289063 -20.82299805 15.64453125 C-19.21842346 14.42553318 -17.60997427 13.21185563 -16 12 C-15.44828125 11.58411621 -14.8965625 11.16823242 -14.328125 10.73974609 C-10.89170008 8.15138748 -7.44741014 5.57371535 -4 3 C-2.93458984 2.10087891 -2.93458984 2.10087891 -1.84765625 1.18359375 C-1.23792969 0.79300781 -0.62820313 0.40242187 0 0 Z " fill="#575757" transform="translate(722,553)"/>
<path d="M0 0 C1.5675 0.020625 3.135 0.04125 4.75 0.0625 C4.75 3.3625 4.75 6.6625 4.75 10.0625 C-0.20943638 11.63202332 -4.87507443 12.4082245 -10.0625 12.8125 C-61.64128276 17.66831928 -121.25170429 29.64562051 -163.25 61.0625 C-163.88180176 61.5251123 -164.51360352 61.98772461 -165.16455078 62.46435547 C-188.71991463 79.78501847 -200.39261139 98.96869482 -208.25 127.0625 C-208.91412089 129.39656803 -209.58212245 131.72950308 -210.25 134.0625 C-211.24 133.7325 -212.23 133.4025 -213.25 133.0625 C-217.44401921 123.78482114 -216.30992002 111.58966675 -213.125 102.125 C-206.78625387 85.44408912 -194.80722805 72.39475877 -181.25 61.0625 C-180.31285156 60.27746094 -179.37570313 59.49242187 -178.41015625 58.68359375 C-168.64871519 50.85685272 -158.02843378 44.3852348 -147.25 38.0625 C-146.46882813 37.60311035 -145.68765625 37.1437207 -144.8828125 36.67041016 C-125.40128347 25.39185193 -102.48710649 16.28309991 -80.234375 12.6171875 C-76.67821575 11.95622596 -73.18938475 11.08486328 -69.6875 10.1875 C-66.87561737 9.47670561 -64.06289864 8.76926168 -61.25 8.0625 C-60.56583008 7.88928223 -59.88166016 7.71606445 -59.17675781 7.53759766 C-40.16754303 2.79200309 -19.62343706 -0.25820312 0 0 Z " fill="#585858" transform="translate(391.25,388.9375)"/>
<path d="M0 0 C30.04858944 4.40164884 64.35582306 32.1028242 82.12890625 55.84375 C84.48886243 59.18737307 86.76036908 62.57518804 89 66 C89.47373047 66.71897461 89.94746094 67.43794922 90.43554688 68.17871094 C105.77388119 91.56128107 118.65511293 115.15435174 113.3359375 144.1015625 C110.11646194 157.39939635 103.73359891 175.88823609 93 185 C92.34 185 91.68 185 91 185 C90.80887409 179.15418328 91.40304951 174.10092834 92.8125 168.4375 C92.97814453 167.72142578 93.14378906 167.00535156 93.31445312 166.26757812 C94.44023353 161.59877563 96.07304309 157.41092481 98 153 C102.72199548 138.50236839 104.46527612 123.58135669 99 109 C98.63648438 108.02675781 98.27296875 107.05351562 97.8984375 106.05078125 C91.14733581 89.04236053 80.86431779 74.74597086 69 61 C68.38253906 60.27039063 67.76507812 59.54078125 67.12890625 58.7890625 C65.45092796 56.82819179 63.73697465 54.90872046 62 53 C61.39542969 52.31808594 60.79085937 51.63617188 60.16796875 50.93359375 C47.1396068 37.00844207 29.99101812 28.31498578 13 20.25 C10.56129432 19.09102994 8.12407489 17.92908282 5.6875 16.765625 C4.61886719 16.25805664 3.55023437 15.75048828 2.44921875 15.22753906 C0 14 0 14 -1 13 C-0.90982004 10.80949979 -0.75333792 8.621534 -0.5625 6.4375 C-0.46066406 5.23996094 -0.35882812 4.04242188 -0.25390625 2.80859375 C-0.17011719 1.88175781 -0.08632813 0.95492188 0 0 Z " fill="#585857" transform="translate(646,358)"/>
<path d="M0 0 C13.08684682 1.85825317 24.66565735 8.17192897 36.1875 14.3125 C37.35039551 14.92818848 38.51329102 15.54387695 39.71142578 16.17822266 C50.25714698 21.89129524 60.50842648 28.2185093 69.25 36.5 C69.7361377 36.95938965 70.22227539 37.4187793 70.72314453 37.89208984 C72.15664525 39.25313926 73.57857001 40.62634917 75 42 C75.83789062 42.78632813 76.67578125 43.57265625 77.5390625 44.3828125 C89.05654993 55.43805963 95.85338016 68.77433421 96.375 84.875 C96.30557404 91.31772941 94.94170676 96.30044315 92 102 C90.15625 101.9453125 90.15625 101.9453125 88 101 C86.93861288 98.57485386 86.18935094 96.40760268 85.5 93.875 C85.18482422 92.80270142 85.18482422 92.80270142 84.86328125 91.70874023 C83.82445885 88.12991838 82.87189937 84.53321217 81.96875 80.91796875 C78.74500211 68.0879721 74.11882641 60.53404443 65 51 C64.48050781 50.40574219 63.96101562 49.81148438 63.42578125 49.19921875 C46.14300491 30.19270094 17.68289892 19.62140261 -5 9 C-3.68753462 5.55905814 -2.33411133 2.86459118 0 0 Z " fill="#575757" transform="translate(626,417)"/>
<path d="M0 0 C4.31345451 0.69146981 8.22735318 2.09754342 12.25 3.75 C12.88679687 3.98976563 13.52359375 4.22953125 14.1796875 4.4765625 C16.015625 5.234375 16.015625 5.234375 19 7 C20.1248786 9.72063662 20.17134069 11.22751483 19.5390625 14.078125 C7.69619868 42.21757921 7.69619868 42.21757921 -2 51 C-6.96481004 51.83095977 -11.25225621 50.15737907 -15.875 48.5 C-16.56335938 48.26152344 -17.25171875 48.02304687 -17.9609375 47.77734375 C-19.64350304 47.19311961 -21.32217383 46.59769889 -23 46 C-23 42.20463569 -21.95721714 41.38273073 -19.625 38.4375 C-11.35403117 27.34086211 -4.78518757 15.33147824 -1 2 C-0.67 1.34 -0.34 0.68 0 0 Z " fill="#FBFCFA" transform="translate(617,360)"/>
<path d="M0 0 C0.99 0.66 1.98 1.32 3 2 C2.41621582 2.44279297 1.83243164 2.88558594 1.23095703 3.34179688 C-1.47204465 5.39319637 -4.17352634 7.44658875 -6.875 9.5 C-7.7928125 10.19609375 -8.710625 10.8921875 -9.65625 11.609375 C-18.24857489 18.14438266 -26.80319381 24.67688491 -34.6875 32.0625 C-35.24727539 32.57200195 -35.80705078 33.08150391 -36.38378906 33.60644531 C-39.34369612 36.32472731 -41.81272314 39.04579335 -44.25 42.25 C-46.70856018 44.86024512 -48.74248257 45.20477468 -52.19921875 45.41796875 C-56.48486291 45.50543088 -60.72561634 45.30290908 -65 45 C-62.64331662 41.94773166 -60.32365965 39.2344026 -57.375 36.75 C-54.31616664 34.14099507 -51.33216383 31.47370353 -48.375 28.75 C-43.27059364 24.13956845 -37.90351354 19.92772417 -32.47265625 15.71484375 C-29.26454731 13.22201443 -26.12841874 10.65461838 -23 8.0625 C-22.11183594 7.34320313 -21.22367187 6.62390625 -20.30859375 5.8828125 C-18.53235447 4.43417065 -16.78973374 2.94423582 -15.0625 1.4375 C-10.24827465 -0.82223843 -5.23036254 -0.64907818 0 0 Z " fill="#FAFCF8" transform="translate(524,340)"/>
<path d="M0 0 C-2.12221469 2.22076955 -4.33280414 4.06536002 -6.8125 5.875 C-9.37873315 7.75972434 -11.81433218 9.69140441 -14.1875 11.8125 C-18.30634161 15.01604347 -22.20048777 15.10762231 -27.30078125 15.31640625 C-28.27724609 15.35830078 -29.25371094 15.40019531 -30.25976562 15.44335938 C-31.26716797 15.48267578 -32.27457031 15.52199219 -33.3125 15.5625 C-34.33923828 15.60568359 -35.36597656 15.64886719 -36.42382812 15.69335938 C-38.94909569 15.79906825 -41.47445562 15.90116468 -44 16 C-43.06181506 14.88900146 -42.12124009 13.78002096 -41.1796875 12.671875 C-40.65616699 12.0540918 -40.13264648 11.43630859 -39.59326172 10.79980469 C-38.18429233 9.20818312 -36.66109489 7.71930815 -35.125 6.25 C-32.65668823 4.15230252 -32.65668823 4.15230252 -33 1 C-21.97636372 0.08949317 -11.05694276 -0.1139891 0 0 Z " fill="#545654" transform="translate(448,301)"/>
<path d="M0 0 C0.33 0 0.66 0 1 0 C1.96828234 20.6199448 -2.49490098 35.34364874 -13 53 C-13.65097656 54.09957031 -14.30195312 55.19914062 -14.97265625 56.33203125 C-16.83187941 59.06169153 -18.30874444 61.08451561 -21 63 C-24.90250022 63.49687005 -28.21809522 63.0149965 -32 62 C-28.83176865 58.10760148 -25.5515606 54.5515606 -22 51 C-10.87368171 39.61493012 -4.40376363 27.32486402 -2.375 11.625 C-2.13575798 9.84595558 -1.89370965 8.06728559 -1.6484375 6.2890625 C-1.54708496 5.51256348 -1.44573242 4.73606445 -1.34130859 3.93603516 C-1 2 -1 2 0 0 Z " fill="#F5F9F1" transform="translate(583,248)"/>
<path d="M0 0 C5.20285068 0.57539314 9.23956036 2.29418893 13.875 4.5625 C14.56335938 4.89185547 15.25171875 5.22121094 15.9609375 5.56054688 C17.6438733 6.36695361 19.32240293 7.18254494 21 8 C20.67 11.96 20.34 15.92 20 20 C16.06102718 20.98474321 15.43307042 21.10176646 11.92578125 19.8203125 C11.17619141 19.55089844 10.42660156 19.28148437 9.65429688 19.00390625 C8.88150391 18.71386719 8.10871094 18.42382812 7.3125 18.125 C6.52810547 17.84269531 5.74371094 17.56039063 4.93554688 17.26953125 C-0.83531037 15.16468963 -0.83531037 15.16468963 -2 14 C-1.9355733 12.39226094 -1.79831686 10.78716777 -1.625 9.1875 C-1.48964844 7.87845703 -1.48964844 7.87845703 -1.3515625 6.54296875 C-1.04111511 4.29739927 -0.60050355 2.18318663 0 0 Z " fill="#585957" transform="translate(625,328)"/>
<path d="M0 0 C-0.89364515 1.20995254 -1.79005779 2.41786111 -2.6875 3.625 C-3.18636719 4.29789062 -3.68523437 4.97078125 -4.19921875 5.6640625 C-4.79347656 6.43492187 -5.38773437 7.20578125 -6 8 C-6.6909375 9.051875 -7.381875 10.10375 -8.09375 11.1875 C-10.37192506 13.90204941 -12.16139532 14.51741458 -15.64453125 15.0234375 C-17.36506748 15.16846354 -19.08820998 15.28499232 -20.8125 15.375 C-21.69615234 15.44332031 -22.57980469 15.51164062 -23.49023438 15.58203125 C-25.65842482 15.74611053 -27.82912369 15.87643687 -30 16 C-29.39644592 12.14974121 -28.23227397 9.13898841 -26.4375 5.6875 C-25.98246094 4.80449219 -25.52742188 3.92148437 -25.05859375 3.01171875 C-24.53458984 2.01591797 -24.53458984 2.01591797 -24 1 C-20.93758173 0.83170223 -17.87508013 0.66530338 -14.8125 0.5 C-13.94818359 0.45230469 -13.08386719 0.40460938 -12.19335938 0.35546875 C-8.12442913 0.13721196 -4.07665227 -0.06752219 0 0 Z " fill="#565956" transform="translate(420,325)"/>
<path d="M0 0 C7.43051512 0.43708912 14.35964477 2.6261925 21 6 C22.23593891 9.70781672 21.5678132 10.67510253 20.0625 14.1875 C19.68222656 15.08855469 19.30195312 15.98960937 18.91015625 16.91796875 C18.60980469 17.60503906 18.30945313 18.29210937 18 19 C13.42111848 17.54884678 9.02350565 15.79418096 4.625 13.875 C3.98433594 13.59785156 3.34367188 13.32070313 2.68359375 13.03515625 C1.12143075 12.35899615 -0.43942315 11.67981293 -2 11 C-0.9375 3.34821429 -0.9375 3.34821429 0 0 Z " fill="#565756" transform="translate(620,349)"/>
<path d="M0 0 C6.6 1.98 13.2 3.96 20 6 C20 9.58912412 19.33563446 10.10857029 17 12.6875 C16.443125 13.31011719 15.88625 13.93273437 15.3125 14.57421875 C14.879375 15.04472656 14.44625 15.51523437 14 16 C6.1140915 14.83107109 -0.74818885 12.26456103 -8 9 C-7.04270084 7.87411986 -6.08412105 6.7493285 -5.125 5.625 C-4.59132813 4.99851562 -4.05765625 4.37203125 -3.5078125 3.7265625 C-2.38567993 2.44163349 -1.20628025 1.20628025 0 0 Z " fill="#585956" transform="translate(593,405)"/>
<path d="M0 0 C1.52657227 0.04060547 1.52657227 0.04060547 3.08398438 0.08203125 C5.57905513 0.15231493 8.06963847 0.25062799 10.5625 0.375 C9.60520084 1.50088014 8.64662105 2.6256715 7.6875 3.75 C7.15382813 4.37648438 6.62015625 5.00296875 6.0703125 5.6484375 C3.54787266 8.53682717 2.4088304 9.6160684 -1.39453125 10.0078125 C-2.17763672 10.09160156 -2.96074219 10.17539062 -3.76757812 10.26171875 C-4.58677734 10.34035156 -5.40597656 10.41898437 -6.25 10.5 C-7.05759766 10.58636719 -7.86519531 10.67273438 -8.69726562 10.76171875 C-12.62520587 11.16705902 -16.48310486 11.4872952 -20.4375 11.375 C-19.27631273 6.98829254 -17.06227617 4.46878846 -13.66381836 1.63623047 C-9.37539743 -0.79320067 -4.79045717 -0.24310713 0 0 Z " fill="#F2F5F3" transform="translate(417.4375,315.625)"/>
<path d="M0 0 C1.5159375 0.2475 1.5159375 0.2475 3.0625 0.5 C3.701875 0.665 4.34125 0.83 5 1 C3.85664392 2.17800324 2.70527326 3.34888711 1.5234375 4.48828125 C-0.02769429 5.98141984 -0.02769429 5.98141984 -1.3984375 7.66796875 C-4.3038855 10.77252105 -6.19424427 11.89635133 -10.4921875 12.44921875 C-14.06034084 12.49664819 -17.46276314 12.47713701 -21 12 C-21.66 11.34 -22.32 10.68 -23 10 C-8.5683398 -1.49605933 -8.5683398 -1.49605933 0 0 Z " fill="#555753" transform="translate(537,328)"/>
<path d="M0 0 C0.74958984 0.06123047 1.49917969 0.12246094 2.27148438 0.18554688 C4.11972745 0.33858611 5.9663335 0.51116879 7.8125 0.6875 C6.87808465 1.96060312 5.93982889 3.230888 5 4.5 C4.47792969 5.20769531 3.95585937 5.91539062 3.41796875 6.64453125 C2.62326172 7.65580078 2.62326172 7.65580078 1.8125 8.6875 C1.420625 9.2753125 1.02875 9.863125 0.625 10.46875 C-2.44000439 12.52970123 -5.85936509 11.72195786 -9.375 11.375 C-10.12458984 11.31376953 -10.87417969 11.25253906 -11.64648438 11.18945312 C-13.49472745 11.03641389 -15.3413335 10.86383121 -17.1875 10.6875 C-16.25308465 9.41439688 -15.31482889 8.144112 -14.375 6.875 C-13.85292969 6.16730469 -13.33085937 5.45960938 -12.79296875 4.73046875 C-11.99826172 3.71919922 -11.99826172 3.71919922 -11.1875 2.6875 C-10.795625 2.0996875 -10.40375 1.511875 -10 0.90625 C-6.93499561 -1.15470123 -3.51563491 -0.34695786 0 0 Z " fill="#575854" transform="translate(466.1875,385.3125)"/>
<path d="M0 0 C3.625 0.125 3.625 0.125 6.625 1.125 C4.36230938 6.1119251 1.25611643 10.13885613 -3.375 13.125 C-7.22014456 13.50395643 -10.62775929 13.0067037 -14.375 12.125 C-14.375 11.135 -14.375 10.145 -14.375 9.125 C-12.22265625 7.1171875 -12.22265625 7.1171875 -9.4375 5 C-8.52097656 4.29617188 -7.60445312 3.59234375 -6.66015625 2.8671875 C-5.90605469 2.29226563 -5.15195312 1.71734375 -4.375 1.125 C-3.375 0.125 -3.375 0.125 0 0 Z " fill="#585956" transform="translate(553.375,309.875)"/>
<path d="M0 0 C5.26621606 0.59578777 9.94408019 1.81308796 14.9375 3.5625 C15.62134766 3.79646484 16.30519531 4.03042969 17.00976562 4.27148438 C18.67508501 4.84211829 20.33782493 5.42027098 22 6 C21.67 7.65 21.34 9.3 21 11 C16.20794669 12.56316524 12.88106292 10.91129561 8.3125 9.25 C7.52810547 8.98445313 6.74371094 8.71890625 5.93554688 8.4453125 C5.18982422 8.17976563 4.44410156 7.91421875 3.67578125 7.640625 C2.99427002 7.39860352 2.31275879 7.15658203 1.6105957 6.90722656 C0 6 0 6 -1 3 C-0.67 2.01 -0.34 1.02 0 0 Z " fill="#F6F7F5" transform="translate(622,343)"/>
<path d="M0 0 C5.3375 0.50833333 5.3375 0.50833333 7.9375 1.375 C6.78576645 3.84300047 5.88966435 5.42283565 3.9375 7.375 C-0.88239758 7.74576135 -4.57273509 7.12710338 -9.0625 5.375 C-6.2873237 1.90602963 -4.47327154 0.01672251 0 0 Z " fill="#F3F5F1" transform="translate(540.0625,321.625)"/>
<path d="M0 0 C0.66 0.33 1.32 0.66 2 1 C-7.9 10.9 -17.8 20.8 -28 31 C-28.66 30.67 -29.32 30.34 -30 30 C-29.49210937 29.50371094 -28.98421875 29.00742188 -28.4609375 28.49609375 C-25.02687106 25.10704316 -21.69962192 21.7215102 -18.625 18 C-17.75875 17.01 -16.8925 16.02 -16 15 C-15.34 15 -14.68 15 -14 15 C-13.67 14.01 -13.34 13.02 -13 12 C-11.328125 10.3515625 -11.328125 10.3515625 -9.25 8.625 C-6.00331159 5.87465784 -2.96094821 3.05347784 0 0 Z " fill="#26A460" transform="translate(375,86)"/>
<path d="M0 0 C0.33 0 0.66 0 1 0 C1.05789006 3.45826342 1.09355821 6.91640293 1.125 10.375 C1.14175781 11.35984375 1.15851562 12.3446875 1.17578125 13.359375 C1.18222656 14.30039062 1.18867187 15.24140625 1.1953125 16.2109375 C1.20578613 17.08024902 1.21625977 17.94956055 1.22705078 18.84521484 C1 21 1 21 -1 23 C-1.66 22.67 -2.32 22.34 -3 22 C-3.27195445 14.92918435 -3.2150072 6.4300144 0 0 Z " fill="#E0ECD2" transform="translate(583,248)"/>
<path d="M0 0 C0.66 0.33 1.32 0.66 2 1 C2 6.28 2 11.56 2 17 C1.34 17 0.68 17 0 17 C-1.11582647 11.69982429 -1.34568689 6.39881588 -1 1 C-0.67 0.67 -0.34 0.34 0 0 Z " fill="#D5E5C2" transform="translate(648,321)"/>
<path d="M0 0 C1.22681437 3.66240172 0.87837275 6.81547438 0.5 10.625 C-0.13229491 14.96453409 -0.13229491 14.96453409 1 19 C0.44140625 20.9453125 0.44140625 20.9453125 -0.4375 23.125 C-0.72496094 23.84945312 -1.01242187 24.57390625 -1.30859375 25.3203125 C-1.53675781 25.87460937 -1.76492188 26.42890625 -2 27 C-2.33 27 -2.66 27 -3 27 C-2.19148936 8.65957447 -2.19148936 8.65957447 0 0 Z " fill="#BCD69F" transform="translate(408,515)"/>
<path d="M0 0 C0.66 0.33 1.32 0.66 2 1 C-2.62 5.62 -7.24 10.24 -12 15 C-12.99 14.67 -13.98 14.34 -15 14 C-10.05 9.38 -5.1 4.76 0 0 Z " fill="#E7F1DD" transform="translate(474,370)"/>
<path d="M0 0 C0.33 0 0.66 0 1 0 C1 6.27 1 12.54 1 19 C0.67 19 0.34 19 0 19 C-0.144375 18.2575 -0.28875 17.515 -0.4375 16.75 C-0.92129198 14.12901844 -0.92129198 14.12901844 -1.59375 12.15625 C-2.10582856 9.43829454 -1.6642447 7.44015277 -1.0625 4.75 C-0.86785156 3.85796875 -0.67320312 2.9659375 -0.47265625 2.046875 C-0.31667969 1.37140625 -0.16070313 0.6959375 0 0 Z " fill="#7AA648" transform="translate(647,332)"/>
<path d="M0 0 C0.33 0 0.66 0 1 0 C2.42857143 8.42857143 2.42857143 8.42857143 0 13 C-0.33 13 -0.66 13 -1 13 C-0.67 8.71 -0.34 4.42 0 0 Z " fill="#A2C67A" transform="translate(412,568)"/>
</svg>
